<svg width="12" height="12" viewBox="0 0 12 12" fill="none" xmlns="http://www.w3.org/2000/svg">
<g clip-path="url(#clip0)">
<path d="M6.1181 12C6.07837 12 6.03864 12 5.99863 11.9998C5.05801 12.0021 4.1889 11.9782 3.34369 11.9267C2.56879 11.8796 1.86145 11.6118 1.29803 11.1524C0.754395 10.7091 0.383148 10.1097 0.194641 9.37104C0.0305786 8.72797 0.0218811 8.09672 0.0135498 7.48615C0.00750731 7.04807 0.00128174 6.52897 0 6.00107C0.00128174 5.47098 0.00750731 4.95188 0.0135498 4.5138C0.0218811 3.90332 0.0305786 3.27207 0.194641 2.62891C0.383148 1.89026 0.754395 1.29086 1.29803 0.847563C1.86145 0.38815 2.56879 0.120358 3.34378 0.0732086C4.189 0.0218475 5.05829 -0.00213938 6.00092 0.00014944C6.9418 -0.00186472 7.81064 0.0218475 8.65585 0.0732086C9.43076 0.120358 10.1381 0.38815 10.7015 0.847563C11.2452 1.29086 11.6164 1.89026 11.8049 2.62891C11.969 3.27197 11.9777 3.90332 11.986 4.5138C11.992 4.95188 11.9984 5.47098 11.9995 5.99888V6.00107C11.9984 6.52897 11.992 7.04807 11.986 7.48615C11.9777 8.09663 11.9691 8.72788 11.8049 9.37104C11.6164 10.1097 11.2452 10.7091 10.7015 11.1524C10.1381 11.6118 9.43076 11.8796 8.65585 11.9267C7.84644 11.976 7.01495 12 6.1181 12ZM5.99863 11.0623C6.92395 11.0645 7.77356 11.0411 8.59891 10.991C9.18484 10.9554 9.69287 10.7652 10.1091 10.4258C10.4938 10.1121 10.7587 9.67921 10.8965 9.13923C11.0331 8.60392 11.041 8.02915 11.0486 7.47333C11.0545 7.03818 11.0608 6.52274 11.062 5.99997C11.0608 5.47712 11.0545 4.96176 11.0486 4.52661C11.041 3.9708 11.0331 3.39603 10.8965 2.86063C10.7587 2.32065 10.4938 1.88779 10.1091 1.57403C9.69287 1.23474 9.18484 1.04458 8.59891 1.00897C7.77356 0.958708 6.92395 0.935545 6.00082 0.937559C5.07568 0.935362 4.22598 0.958708 3.40063 1.00897C2.8147 1.04458 2.30667 1.23474 1.89047 1.57403C1.50577 1.88779 1.24081 2.32065 1.10303 2.86063C0.966431 3.39603 0.958557 3.97071 0.950958 4.52661C0.945007 4.96213 0.938782 5.47785 0.9375 6.00107C0.938782 6.52201 0.945007 7.03782 0.950958 7.47333C0.958557 8.02915 0.966431 8.60392 1.10303 9.13923C1.24081 9.67921 1.50577 10.1121 1.89047 10.4258C2.30667 10.7651 2.8147 10.9553 3.40063 10.9909C4.22598 11.0411 5.07587 11.0646 5.99863 11.0623ZM5.97629 8.92967C4.36093 8.92967 3.0466 7.61542 3.0466 5.99997C3.0466 4.38452 4.36093 3.07028 5.97629 3.07028C7.59174 3.07028 8.90598 4.38452 8.90598 5.99997C8.90598 7.61542 7.59174 8.92967 5.97629 8.92967ZM5.97629 4.00778C4.87784 4.00778 3.9841 4.90152 3.9841 5.99997C3.9841 7.09842 4.87784 7.99216 5.97629 7.99216C7.07483 7.99216 7.96848 7.09842 7.96848 5.99997C7.96848 4.90152 7.07483 4.00778 5.97629 4.00778ZM9.2341 2.13278C8.84583 2.13278 8.53098 2.44754 8.53098 2.83591C8.53098 3.22427 8.84583 3.53903 9.2341 3.53903C9.62247 3.53903 9.93723 3.22427 9.93723 2.83591C9.93723 2.44754 9.62247 2.13278 9.2341 2.13278Z" fill="white"/>
</g>
<defs>
<clipPath id="clip0">
<rect width="12" height="12" fill="white"/>
</clipPath>
</defs>
</svg>
