<svg width="12" height="8" viewBox="0 0 12 8" fill="none" xmlns="http://www.w3.org/2000/svg">
<path d="M6.0725 8C7.80849 8 7.18949 6.82773 7.32349 6.49067C7.32149 6.23893 7.31949 5.9968 7.32749 5.8496C7.43749 5.88267 7.69699 6.02293 8.23299 6.57867C9.06049 7.46933 9.27199 8 9.94049 8H11.171C11.561 8 11.764 7.82773 11.8655 7.6832C11.9635 7.54347 12.0595 7.29813 11.9545 6.91627C11.68 5.9968 10.079 4.40907 9.97949 4.2416C9.99449 4.21067 10.0185 4.1696 10.031 4.14827H10.03C10.346 3.70293 11.552 1.77547 11.7295 1.00427L11.7305 1C11.8265 0.648 11.7385 0.419733 11.6475 0.290667C11.5105 0.0976001 11.2925 0 10.998 0H9.76749C9.35549 0 9.04299 0.221333 8.88499 0.625067C8.62049 1.3424 7.87749 2.8176 7.32049 3.33973C7.30349 2.6 7.31499 2.0352 7.32399 1.61547C7.34199 0.7968 7.39999 0 6.60349 0H4.6695C4.1705 0 3.693 0.581333 4.21 1.27147C4.662 1.87627 4.3725 2.21333 4.47 3.8912C4.09 3.45653 3.414 2.28267 2.936 0.7824C2.802 0.376533 2.599 0.000533295 2.0275 0.000533295H0.796999C0.298 0.000533295 0 0.290667 0 0.776533C0 1.86773 2.2645 8 6.0725 8ZM2.0275 0.800533C2.136 0.800533 2.147 0.800533 2.2275 1.04427C2.717 2.58187 3.815 4.85707 4.617 4.85707C5.2195 4.85707 5.2195 4.1984 5.2195 3.9504L5.219 1.976C5.186 1.32267 4.963 0.997333 4.8165 0.8L6.57049 0.802134C6.57149 0.8112 6.56049 2.98613 6.57549 3.51307C6.57549 4.26133 7.13249 4.69013 8.00199 3.75147C8.91949 2.64693 9.55399 0.995733 9.57949 0.928533C9.61699 0.832533 9.64949 0.8 9.76749 0.8H10.998H11.003L11.002 0.8048C10.8895 1.3648 9.77899 3.14933 9.40749 3.70347C9.40149 3.712 9.39599 3.72107 9.39049 3.73013C9.22699 4.01493 9.09399 4.3296 9.41299 4.77227C9.44199 4.8096 9.51799 4.89707 9.62799 5.01867C9.96999 5.3952 11.143 6.68267 11.247 7.19467C11.178 7.2064 11.103 7.19787 9.94049 7.20053C9.69299 7.20053 9.49949 6.80587 8.76099 6.0112C8.09699 5.32213 7.66599 5.04053 7.27349 5.04053C6.51149 5.04053 6.56699 5.70027 6.57399 6.49813C6.57649 7.3632 6.5715 7.0896 6.57699 7.144C6.5325 7.16267 6.40499 7.2 6.0725 7.2C2.9 7.2 0.833999 1.8288 0.754499 0.802134C0.781999 0.799467 1.1605 0.801067 2.0275 0.800533Z" fill="white"/>
</svg>
