<svg width="12" height="13" viewBox="0 0 12 13" fill="none" xmlns="http://www.w3.org/2000/svg">
<g clip-path="url(#clip0)">
<path d="M11.8145 0.301117C11.6679 0.106918 11.4484 0 11.1962 0C11.0592 0 10.914 0.0312424 10.7647 0.0930328L0.606952 4.29369C0.0678899 4.51656 -0.00471139 4.851 -4.22013e-05 5.03052C0.00462698 5.21004 0.0946233 5.53952 0.644489 5.72906C0.647785 5.73015 0.651081 5.73124 0.654377 5.73223L2.76137 6.38544L3.90084 9.91534C4.0562 10.3966 4.40493 10.6955 4.81105 10.6955C5.06713 10.6955 5.31899 10.5793 5.53945 10.3595L6.8427 9.05949L8.73299 10.7084C8.73317 10.7086 8.73345 10.7087 8.73363 10.7089L8.75158 10.7246C8.75322 10.726 8.75496 10.7274 8.75661 10.7288C8.96672 10.9054 9.19606 10.9986 9.42009 10.9987H9.42019C9.8579 10.9987 10.2064 10.6477 10.308 10.1046L11.9723 1.20159C12.0391 0.844238 11.9831 0.524475 11.8145 0.301117ZM3.46624 6.26137L7.53127 4.01162L5.00011 6.92529C4.95864 6.973 4.92925 7.03142 4.91478 7.09499L4.42672 9.23673L3.46624 6.26137ZM5.0631 9.79909C5.04625 9.81586 5.02932 9.83083 5.01238 9.84462L5.4652 7.8578L6.2889 8.57638L5.0631 9.79909ZM11.2832 1.05034L9.61885 9.95342C9.60283 10.0386 9.55165 10.2369 9.42009 10.2369C9.35509 10.2369 9.27343 10.1985 9.18984 10.1288L7.04787 8.26038C7.0476 8.26009 7.04723 8.25979 7.04686 8.25959L5.77236 7.14776L9.43273 2.9342C9.54992 2.79932 9.56054 2.59272 9.4579 2.44454C9.35518 2.29636 9.16906 2.24975 9.0168 2.33405L2.99648 5.66598L0.860828 5.00404L11.0155 0.804665C11.1013 0.769157 11.1612 0.761719 11.1962 0.761719C11.2177 0.761719 11.256 0.764496 11.2702 0.78344C11.2889 0.808136 11.3127 0.892341 11.2832 1.05034Z" fill="white"/>
</g>
<defs>
<clipPath id="clip0">
<rect width="12" height="13" fill="white"/>
</clipPath>
</defs>
</svg>
