<svg width="33" height="29" viewBox="0 0 33 29" fill="none" xmlns="http://www.w3.org/2000/svg">
<path d="M31.4531 24.9219H30.4219V13.5938C30.4219 12.9929 30.1503 12.4166 29.6668 11.9917C29.1833 11.5668 28.5275 11.3281 27.8438 11.3281H18.7997C19.1703 10.967 19.4236 10.5249 19.5329 10.0481C19.6423 9.5714 19.6037 9.0776 19.4213 8.61846C19.2389 8.15932 18.9193 7.75175 18.4961 7.43844C18.0728 7.12513 17.5615 6.91762 17.0156 6.83766V6.79688H18.0469C18.8674 6.79688 19.6543 6.51044 20.2345 6.00057C20.8147 5.49071 21.1406 4.79918 21.1406 4.07812C21.1406 3.95795 21.0863 3.84269 20.9896 3.75772C20.8929 3.67274 20.7618 3.625 20.625 3.625H19.0781C18.3161 3.62561 17.5814 3.8742 17.0156 4.32281V3.625H15.9844V6.83766C15.4385 6.91762 14.9272 7.12513 14.5039 7.43844C14.0807 7.75175 13.7611 8.15932 13.5787 8.61846C13.3962 9.0776 13.3577 9.5714 13.4671 10.0481C13.5764 10.5249 13.8297 10.967 14.2003 11.3281H3.09375C2.957 11.3281 2.82585 11.3759 2.72915 11.4608C2.63245 11.5458 2.57812 11.6611 2.57812 11.7812V24.9219H1.54688C1.41012 24.9219 1.27897 24.9696 1.18227 25.0546C1.08557 25.1396 1.03125 25.2548 1.03125 25.375V25.8281C1.03125 26.429 1.30287 27.0053 1.78637 27.4302C2.26986 27.8551 2.92561 28.0938 3.60938 28.0938H29.3906C30.0744 28.0938 30.7301 27.8551 31.2136 27.4302C31.6971 27.0053 31.9688 26.429 31.9688 25.8281V25.375C31.9688 25.2548 31.9144 25.1396 31.8177 25.0546C31.721 24.9696 31.5899 24.9219 31.4531 24.9219ZM19.0781 4.53125H20.0423C19.9281 4.92009 19.6701 5.26458 19.309 5.51062C18.9478 5.75666 18.5039 5.89033 18.0469 5.89062H17.0827C17.1969 5.50179 17.4549 5.1573 17.816 4.91126C18.1772 4.66521 18.6211 4.53155 19.0781 4.53125ZM15.9844 7.76656V8.60938H17.0156V7.76656C17.5017 7.87685 17.9253 8.13913 18.207 8.50425C18.4888 8.86937 18.6093 9.31226 18.5461 9.74989C18.4828 10.1875 18.2401 10.5899 17.8634 10.8815C17.4868 11.1731 17.002 11.334 16.5 11.334C15.998 11.334 15.5132 11.1731 15.1366 10.8815C14.7599 10.5899 14.5172 10.1875 14.4539 9.74989C14.3907 9.31226 14.5112 8.86937 14.793 8.50425C15.0747 8.13913 15.4983 7.87685 15.9844 7.76656ZM3.60938 12.2344H27.8438C28.2536 12.2355 28.6464 12.379 28.9362 12.6337C29.226 12.8884 29.3894 13.2336 29.3906 13.5938V24.9219H27.8438V14.9531C27.8425 14.5929 27.6792 14.2478 27.3893 13.9931C27.0995 13.7384 26.7068 13.5948 26.2969 13.5938H24.2344C23.8245 13.5948 23.4318 13.7384 23.1419 13.9931C22.8521 14.2478 22.6887 14.5929 22.6875 14.9531V20.1641C22.6875 20.4645 22.5517 20.7526 22.3099 20.9651C22.0682 21.1775 21.7403 21.2969 21.3984 21.2969C21.0566 21.2969 20.7287 21.1775 20.4869 20.9651C20.2452 20.7526 20.1094 20.4645 20.1094 20.1641V14.9531H19.0781V17.2188C19.0783 17.3421 19.0499 17.4641 18.9946 17.5775C18.9392 17.6908 18.8582 17.793 18.7563 17.8779C18.6545 17.9627 18.534 18.0284 18.4022 18.0709C18.2705 18.1134 18.1303 18.1318 17.9902 18.125C17.7175 18.0992 17.4659 17.9843 17.2853 17.8029C17.1048 17.6216 17.0085 17.3871 17.0156 17.1462V14.9531C17.0144 14.5929 16.851 14.2478 16.5612 13.9931C16.2714 13.7384 15.8786 13.5948 15.4688 13.5938H3.60938V12.2344ZM23.7188 17.2188V14.9531C23.7188 14.8329 23.7731 14.7177 23.8698 14.6327C23.9665 14.5477 24.0976 14.5 24.2344 14.5H26.2969C26.4336 14.5 26.5648 14.5477 26.6615 14.6327C26.7582 14.7177 26.8125 14.8329 26.8125 14.9531V17.2188H23.7188ZM26.8125 18.125V21.2969H23.3269C23.5821 20.9616 23.7185 20.5674 23.7188 20.1641V18.125H26.8125ZM3.60938 14.5H15.4688C15.6055 14.5 15.7367 14.5477 15.8334 14.6327C15.9301 14.7177 15.9844 14.8329 15.9844 14.9531V17.1462C15.9856 17.1706 15.989 17.1949 15.9947 17.2188H3.60938V14.5ZM3.60938 18.125H16.2886C16.4211 18.3305 16.5987 18.5109 16.8111 18.6556C17.0235 18.8004 17.2665 18.9066 17.526 18.9681C17.7855 19.0297 18.0564 19.0453 18.3228 19.0141C18.5892 18.983 18.846 18.9056 19.0781 18.7866V20.1641C19.0784 20.5674 19.2148 20.9616 19.47 21.2969H3.60938V18.125ZM3.60938 22.2031H26.8125V24.9219H3.60938V22.2031ZM29.3906 27.1875H3.60938C3.19949 27.1864 2.80675 27.0429 2.51692 26.7882C2.22709 26.5335 2.06372 26.1883 2.0625 25.8281H30.9375C30.9363 26.1883 30.7729 26.5335 30.4831 26.7882C30.1932 27.0429 29.8005 27.1864 29.3906 27.1875Z" fill="#759ABA"/>
</svg>
