<svg width="33" height="29" viewBox="0 0 33 29" fill="none" xmlns="http://www.w3.org/2000/svg">
<g clip-path="url(#clip0)">
<path d="M28.0393 9.6908C28.0389 9.6908 28.0385 9.6908 28.0382 9.6908H0.472476C0.211843 9.69055 0.000275927 9.87599 2.69768e-07 10.105C2.69768e-07 10.1053 2.69768e-07 10.1057 2.69768e-07 10.106V21.7337C-0.000275387 21.9628 0.21074 22.1487 0.471374 22.1489C0.471718 22.1489 0.472132 22.1489 0.472476 22.1489H19.2171C19.4781 22.1489 19.6896 21.963 19.6896 21.7337C19.6896 21.5044 19.4781 21.3185 19.2171 21.3185H0.944952V10.5212H27.5657V11.5595C27.5654 11.7885 27.7764 11.9744 28.0371 11.9747C28.0374 11.9747 28.0378 11.9747 28.0382 11.9747C28.2988 11.9749 28.5104 11.7895 28.5106 11.5604C28.5106 11.5601 28.5106 11.5598 28.5106 11.5595V10.106C28.5109 9.87696 28.2999 9.6911 28.0393 9.6908Z" fill="#759ABA"/>
<path d="M24.8339 7.76302L2.78138 3.40263C2.65899 3.37858 2.53074 3.39808 2.42468 3.45689C2.31876 3.51618 2.24385 3.60987 2.21628 3.71754L1.11366 8.07793C1.05701 8.30189 1.21772 8.52379 1.47256 8.57357C1.72741 8.62335 1.97991 8.48212 2.03656 8.25816L3.03609 4.30426L24.6266 8.57308C24.6608 8.58005 24.6958 8.5835 24.7308 8.58326C24.9918 8.58283 25.2029 8.39661 25.2025 8.16732C25.2021 7.97347 25.0491 7.80571 24.8339 7.76302Z" fill="#759ABA"/>
<path d="M22.1562 5.36043L8.92467 0.515553C8.6947 0.431312 8.42973 0.517854 8.31822 0.713708L7.2156 2.65166C7.09107 2.85406 7.1768 3.1069 7.40718 3.21633C7.63749 3.32577 7.92521 3.25043 8.04973 3.04797C8.05463 3.04004 8.05924 3.03192 8.06352 3.02369V3.02466L8.96822 1.4336L21.7912 6.12877C22.0327 6.21731 22.3102 6.11714 22.4109 5.90494C22.5117 5.69285 22.3977 5.44903 22.1562 5.36043Z" fill="#759ABA"/>
<path d="M22.4903 11.6288H18.1146C17.8537 11.6288 17.6421 11.8147 17.6421 12.044C17.6421 12.2733 17.8537 12.4592 18.1146 12.4592H22.4903C22.7513 12.4592 22.9628 12.2733 22.9628 12.044C22.9628 11.8147 22.7513 11.6288 22.4903 11.6288Z" fill="#759ABA"/>
<path d="M13.704 11.6562C11.0245 11.6562 8.85242 13.5651 8.85242 15.9197C8.85517 18.2734 11.0257 20.1808 13.704 20.1832C16.3834 20.1832 18.5555 18.2744 18.5555 15.9197C18.5555 13.5651 16.3834 11.6562 13.704 11.6562ZM13.704 19.4081C11.5117 19.4081 9.73452 17.8463 9.73452 15.9197C9.73693 13.9941 11.5127 12.4335 13.704 12.4314C15.8963 12.4314 17.6734 13.9932 17.6734 15.9197C17.6734 17.8463 15.8963 19.4081 13.704 19.4081Z" fill="#759ABA"/>
<path d="M26.9355 13.0129C24.0136 13.0129 20.8711 13.6195 20.8711 14.9509V26.5786C20.8711 27.91 24.0136 28.5166 26.9355 28.5166C29.8575 28.5166 33 27.91 33 26.5786V14.9509C33 13.6195 29.8575 13.0129 26.9355 13.0129ZM31.8974 26.5713C31.8141 26.8402 30.1607 27.5476 26.9355 27.5476C23.7104 27.5476 22.057 26.8402 21.9737 26.5786V25.817C23.1469 26.3364 25.0848 26.5786 26.9355 26.5786C28.7863 26.5786 30.7247 26.3339 31.8974 25.8165V26.5713ZM31.8974 24.6334C31.8141 24.9023 30.1607 25.6096 26.9355 25.6096C23.7104 25.6096 22.057 24.9023 21.9737 24.6407V23.879C23.1469 24.3984 25.0848 24.6407 26.9355 24.6407C28.7863 24.6407 30.7247 24.396 31.8974 23.8786V24.6334ZM31.8974 22.6954C31.8141 22.9643 30.1607 23.6717 26.9355 23.6717C23.7104 23.6717 22.057 22.9643 21.9737 22.7027V21.9411C23.1469 22.4605 25.0848 22.7027 26.9355 22.7027C28.7863 22.7027 30.7247 22.458 31.8974 21.9406V22.6954ZM31.8974 20.7575C31.8141 21.0264 30.1607 21.7337 26.9355 21.7337C23.7104 21.7337 22.057 21.0264 21.9737 20.7647V20.0031C23.1469 20.5225 25.0848 20.7647 26.9355 20.7647C28.7863 20.7647 30.7247 20.5201 31.8974 20.0026V20.7575ZM31.8974 18.8195C31.8141 19.0884 30.1607 19.7958 26.9355 19.7958C23.7104 19.7958 22.057 19.0884 21.9737 18.8268V18.0652C23.1469 18.5821 25.0848 18.8268 26.9355 18.8268C28.7863 18.8268 30.7247 18.5821 31.8974 18.0647V18.8195ZM31.8974 16.8816C31.8141 17.1505 30.1607 17.8578 26.9355 17.8578C23.7104 17.8578 22.057 17.1505 21.9737 16.8888V16.1272C23.1469 16.6442 25.0848 16.8888 26.9355 16.8888C28.7863 16.8888 30.7247 16.6442 31.8974 16.1267V16.8816ZM26.9355 15.9199C23.7153 15.9199 22.0625 15.2145 21.9737 14.9596V14.9567C22.0625 14.6868 23.7153 13.9819 26.9355 13.9819C30.1332 13.9819 31.7871 14.6767 31.8974 14.9509C31.7871 15.2251 30.1332 15.9199 26.9355 15.9199Z" fill="#759ABA"/>
<path d="M9.29351 19.38H5.12613L3.15022 17.4808V14.3316L5.33232 12.4591H9.29351C9.55442 12.4591 9.76598 12.2732 9.76598 12.0439C9.76598 11.8146 9.55442 11.6287 9.29351 11.6287H5.14046C5.01696 11.6284 4.89823 11.6707 4.80967 11.7464L2.34695 13.8573C2.25495 13.9518 2.20451 14.0721 2.20471 14.1964V17.6421C2.20471 17.7457 2.24875 17.8456 2.32821 17.9222L4.5682 20.0752C4.65772 20.1613 4.78438 20.2105 4.91718 20.2104H9.29351C9.55442 20.2104 9.76598 20.0245 9.76598 19.7952C9.76598 19.5659 9.55449 19.38 9.29351 19.38Z" fill="#759ABA"/>
<path d="M13.9796 15.4353H13.4283C13.2569 15.4353 13.1527 15.351 13.1527 15.3142C13.1527 15.2774 13.2569 15.1931 13.4283 15.1931H14.8066C15.1111 15.1931 15.3579 14.9762 15.3579 14.7086C15.3579 14.441 15.1111 14.2241 14.8066 14.2241H14.2553C14.2553 13.9566 14.0085 13.7396 13.704 13.7396C13.3995 13.7396 13.1527 13.9566 13.1527 14.2241V14.2459C12.5412 14.3218 12.078 14.7696 12.05 15.3118C12.0895 15.947 12.7052 16.4351 13.4283 16.4043H13.9796C14.1511 16.4043 14.2553 16.4886 14.2553 16.5254C14.2553 16.5623 14.1511 16.6466 13.9796 16.6466H12.6014C12.2969 16.6466 12.05 16.8635 12.05 17.131C12.05 17.3986 12.2969 17.6155 12.6014 17.6155H13.1527C13.1527 17.8831 13.3995 18.1 13.704 18.1C14.0085 18.1 14.2553 17.8831 14.2553 17.6155V17.5937C14.8668 17.5178 15.33 17.07 15.3579 16.5279C15.3184 15.8926 14.7028 15.4046 13.9796 15.4353Z" fill="#759ABA"/>
</g>
<defs>
<clipPath id="clip0">
<rect width="33" height="29" fill="white"/>
</clipPath>
</defs>
</svg>
