<svg width="33" height="29" viewBox="0 0 33 29" fill="none" xmlns="http://www.w3.org/2000/svg">
<g clip-path="url(#clip0)">
<path d="M17.3578 14.6293C17.2475 14.6293 17.1375 14.6045 17.0383 14.5549C16.8374 14.454 16.7133 14.2662 16.7133 14.0628V12.8911H15.2402C13.8401 12.8911 12.701 11.8899 12.701 10.6595V4.66689C12.701 3.4365 13.8401 2.43555 15.2402 2.43555H30.4607C31.8611 2.43555 33.0001 3.4365 33.0001 4.66689V10.6595C33.0001 11.8901 31.8608 12.8911 30.4607 12.8911H20.8834L17.6856 14.5507C17.5847 14.6031 17.4711 14.6293 17.3578 14.6293ZM15.2402 3.56836C14.5508 3.56836 13.9899 4.06109 13.9899 4.66689V10.6595C13.9899 11.2653 14.5508 11.7583 15.2402 11.7583H17.3578C17.7138 11.7583 18.0023 12.0118 18.0023 12.3247V13.0707L20.3793 11.837C20.4788 11.7855 20.5918 11.7583 20.7071 11.7583H30.4607C31.1501 11.7583 31.711 11.2653 31.711 10.6595V4.66689C31.711 4.06109 31.1501 3.56836 30.4607 3.56836H15.2402Z" fill="#759ABA"/>
<path d="M17.9269 5.51318C18.6784 5.51318 19.4365 5.92892 19.4365 6.6918C19.4365 7.92728 17.4344 8.3315 17.4344 8.84968V8.90079H19.1318C19.294 8.90079 19.4365 9.07735 19.4365 9.28245C19.4365 9.48733 19.294 9.67517 19.1318 9.67517H16.8254C16.6441 9.67517 16.3848 9.56698 16.3848 9.40193V8.84968C16.3848 7.95582 18.4256 7.4434 18.4256 6.72034C18.4256 6.53803 18.296 6.31611 17.9332 6.31611C17.6741 6.31611 17.4475 6.42983 17.4475 6.74313C17.4475 6.90818 17.2466 7.06749 16.916 7.06749C16.6569 7.06749 16.4626 6.96505 16.4626 6.60639C16.4628 5.91188 17.1884 5.51318 17.9269 5.51318Z" fill="#759ABA"/>
<path d="M21.2958 8.79835H19.7796C19.5918 8.79835 19.4427 8.69016 19.4427 8.49103C19.4427 8.44545 19.4558 8.38284 19.4946 8.32022L20.9911 5.74107C21.0883 5.57602 21.2505 5.51318 21.4124 5.51318C21.5873 5.51318 21.9177 5.64417 21.9177 5.84927C21.9177 5.88334 21.9048 5.91741 21.8852 5.95746L20.7386 7.97861H21.2958V7.57991C21.2958 7.39206 21.5483 7.31241 21.8011 7.31241C22.0536 7.31241 22.3064 7.39206 22.3064 7.57991V7.97861H22.5851C22.7923 7.97861 22.896 8.18349 22.896 8.38859C22.896 8.59347 22.7404 8.79835 22.5851 8.79835H22.3064V9.40193C22.3064 9.58424 22.0536 9.67517 21.8011 9.67517C21.5483 9.67517 21.2958 9.58424 21.2958 9.40193V8.79835Z" fill="#759ABA"/>
<path d="M25.9473 5.58157C25.9473 5.61587 25.941 5.65569 25.9216 5.68977L23.6408 9.7949C23.5955 9.8803 23.4726 9.93716 23.3495 9.93716C23.1292 9.93716 22.9867 9.77786 22.9867 9.63537C22.9867 9.6013 22.9995 9.56148 23.0189 9.52718L25.2929 5.42227C25.3448 5.32536 25.4485 5.27979 25.5651 5.27979C25.7466 5.27979 25.9473 5.39948 25.9473 5.58157Z" fill="#759ABA"/>
<path d="M29.3161 6.4982C29.3161 6.64622 29.2124 6.86836 29.1087 7.03917L27.5928 9.58977C27.5409 9.67518 27.4437 9.70947 27.3078 9.70947C26.9903 9.70947 26.6662 9.51588 26.6662 9.25966C26.6662 9.20833 26.6791 9.16276 26.7116 9.11165L28.3055 6.68627V6.28757H27.1459V6.66901C27.1459 6.82278 26.8996 6.94226 26.634 6.94226C26.3619 6.94226 26.135 6.82278 26.135 6.66901V5.78665C26.135 5.64992 26.3553 5.51318 26.5756 5.51318H28.8755C29.0702 5.51318 29.3161 5.64992 29.3161 5.78665V6.4982Z" fill="#759ABA"/>
<path d="M8.34677 19.8556C8.08015 19.8556 7.8387 19.7063 7.74403 19.4885C7.6471 19.2653 7.72666 19.0024 7.9379 18.8513C8.14687 18.7018 8.44622 18.6816 8.67785 18.8033C8.90822 18.9246 9.03159 19.1682 8.97821 19.3998C8.91829 19.6609 8.65091 19.8556 8.34677 19.8556Z" fill="#759ABA"/>
<path d="M19.3734 26.6387C18.3092 26.6387 17.1196 26.3981 15.8086 25.9165C15.2275 25.703 14.3607 25.1788 13.1585 24.3144C13.1418 24.3027 13.126 24.2898 13.1109 24.2766L9.94939 21.4983C9.69762 21.277 9.69762 20.9184 9.94939 20.6973C10.2009 20.4761 10.609 20.4761 10.8608 20.6973L13.9994 23.4555C15.41 24.4679 16.0495 24.777 16.3058 24.8713C18.8525 25.8072 20.7161 25.7125 22.0032 24.5814L24.2464 22.6101L19.5295 18.4649C19.1632 18.143 18.6763 17.9658 18.1584 17.9658C17.6405 17.9658 17.1536 18.143 16.7872 18.4649L15.6623 19.4532C15.12 19.9303 14.261 19.9719 13.6645 19.5501C12.6955 18.8647 12.1244 18.4499 10.7198 17.2199C9.31845 15.9842 8.84638 15.4824 8.06639 14.6306C7.58652 14.1064 7.63385 13.3517 8.17667 12.8749L9.30158 11.8864C9.66766 11.5645 9.86933 11.1366 9.86933 10.6814C9.86933 10.2263 9.66766 9.79841 9.30158 9.47671L4.58466 5.33153L2.34138 7.3029C1.05458 8.43395 0.946567 10.0717 2.01156 12.3096C2.11352 12.524 2.38846 12.9528 3.11885 13.781L4.42126 15.0381L6.76121 17.0947C7.01299 17.3159 7.01299 17.6746 6.76121 17.8958C6.5097 18.1169 6.10158 18.1169 5.8498 17.8958L3.49902 15.8298C3.49172 15.8236 3.48492 15.8172 3.47812 15.8105L2.14852 14.527C2.13719 14.5162 2.12637 14.5047 2.11604 14.4932C1.44155 13.7296 1.01832 13.1584 0.822444 12.7468C-0.448999 10.0748 -0.244561 7.97374 1.42997 6.50196L4.12895 4.13013C4.38072 3.9091 4.78884 3.9091 5.04036 4.13013L10.213 8.67578C10.8228 9.21165 11.1584 9.92409 11.1584 10.6817C11.1584 11.4394 10.8228 12.1519 10.213 12.6875L9.08833 13.6761C9.01179 13.7431 9.00449 13.8482 9.07071 13.9208C9.8225 14.7417 10.2779 15.2255 11.6315 16.4192C12.988 17.6073 13.5386 18.0073 14.4727 18.6678C14.5553 18.7262 14.6749 18.7196 14.7512 18.6527L15.8761 17.6642C16.4856 17.1283 17.2963 16.8332 18.1586 16.8332C19.0207 16.8332 19.8314 17.1283 20.4409 17.6642L25.6136 22.2096C25.7344 22.316 25.8024 22.4601 25.8024 22.6101C25.8024 22.7603 25.7344 22.9043 25.6136 23.0105L22.9146 25.3824C21.9619 26.2196 20.7773 26.6387 19.3734 26.6387Z" fill="#759ABA"/>
</g>
<defs>
<clipPath id="clip0">
<rect width="33" height="29" fill="white"/>
</clipPath>
</defs>
</svg>
