<svg height="512pt" viewBox="-27 0 512 512" width="512pt" xmlns="http://www.w3.org/2000/svg"><path d="m162.164062 415.140625h133.882813v66.496094h-133.882813zm0 0" fill="#babac0"/><path d="m273.546875 416.125h22.496094v64.527344h-22.496094zm0 0" fill="#a1a1a7"/><path d="m.53125 191.578125h457.679688v181.203125h-457.679688zm0 0" fill="#c9f0ff"/><path d="m458.214844 131.894531v275.589844c0 13.574219-11 24.570313-24.574219 24.570313h-30.011719c13.570313 0 24.570313-10.996094 24.570313-24.570313v-275.589844c0-13.570312-11-24.570312-24.570313-24.570312h30.011719c13.574219 0 24.574219 11 24.574219 24.570312zm0 0" fill="#9ae7fd"/><path d="m458.210938 372.863281h-458.210938v34.621094c0 13.570313 11 24.570313 24.570312 24.570313h409.070313c13.570313 0 24.570313-11 24.570313-24.570313zm0 0" fill="#ececf1"/><path d="m458.214844 372.859375v34.625c0 13.574219-11 24.570313-24.574219 24.570313h-30.011719c13.570313 0 24.570313-10.996094 24.570313-24.570313v-34.625zm0 0" fill="#d3d3d8"/><path d="m458.757812 191.136719h-458.226562v-59.246094c0-13.570313 11-24.570313 24.570312-24.570313h409.089844c13.566406 0 24.566406 11 24.566406 24.570313zm0 0" fill="#ececf1"/><path d="m458.761719 131.886719v59.253906h-30.5625v-59.253906c0-13.5625-11-24.5625-24.570313-24.5625h30.5625c13.570313 0 24.570313 11 24.570313 24.5625zm0 0" fill="#d3d3d8"/><path d="m339.425781 511.996094h-220.644531c-2.660156 0-4.816406-2.15625-4.816406-4.816406v-15.605469c0-10.582031 8.582031-19.164063 19.164062-19.164063h191.953125c10.582031 0 19.160157 8.582032 19.160157 19.164063v15.605469c0 2.660156-2.15625 4.816406-4.816407 4.816406zm0 0" fill="#ececf1"/><path d="m344.242188 491.570312v15.613282c0 2.660156-2.15625 4.816406-4.816407 4.816406h-17v-20.429688c0-10.574218-8.582031-19.15625-19.15625-19.15625h21.816407c10.578124 0 19.15625 8.578126 19.15625 19.15625zm0 0" fill="#d3d3d8"/><path d="m47.664062 66.597656h363.433594v306.183594h-363.433594zm0 0" fill="#ffe1a8"/><path d="m379.015625 66.597656h32.082031v306.183594h-32.082031zm0 0" fill="#ffd98f"/><path d="m429.734375 75.785156h-28.601563l-46.859374-72.035156c-1.527344-2.332031-4.128907-3.74609375-6.925782-3.74609375h28.605469c2.796875 0 5.398437 1.41406275 6.921875 3.74609375zm0 0" fill="#f57c7c"/><path d="m429.734375 75.789062-46.859375-72.035156c-1.523438-2.339844-4.128906-3.753906-6.921875-3.753906h-293.144531c-2.792969 0-5.398438 1.414062-6.921875 3.753906l-46.855469 72.035156v.101563l1 2.558594h398.183594l1.523437-2.558594zm0 0" fill="#f89696"/><path d="m296.652344 75.628906c0 37.058594-30.042969 67.097656-67.097656 67.097656-37.058594 0-67.097657-30.039062-67.097657-67.097656zm0 0" fill="#ffcd6b"/><path d="m163.226562 75.628906c0 37.058594-30.042968 67.097656-67.097656 67.097656-37.058594 0-67.097656-30.039062-67.097656-67.097656zm0 0" fill="#ea4444"/><path d="m429.734375 75.628906c0 37.058594-30.042969 67.097656-67.097656 67.097656-37.058594 0-67.097657-30.039062-67.097657-67.097656zm0 0" fill="#ea4444"/><path d="m296.648438 75.632812c0 37.050782-30.042969 67.09375-67.09375 67.09375-5.023438 0-9.921876-.550781-14.632813-1.601562 30.011719-6.683594 52.453125-33.472656 52.453125-65.492188zm0 0" fill="#ffc143"/><path d="m163.230469 75.632812c0 37.050782-30.046875 67.09375-67.109375 67.09375-5.019532 0-9.921875-.550781-14.628906-1.601562 30.019531-6.683594 52.453124-33.472656 52.453124-65.492188zm0 0" fill="#d93131"/><path d="m429.734375 75.632812c0 37.050782-30.042969 67.09375-67.09375 67.09375-5.035156 0-9.933594-.550781-14.644531-1.601562 30.023437-6.675781 52.453125-33.464844 52.453125-65.492188zm0 0" fill="#d93131"/><path d="m212.121094 308.566406c1.933594 2.511719 3.082031 6.25 3.082031 9.664063 0 8.214843-6.660156 14.875-14.871094 14.875-8.214843 0-14.875-6.660157-14.875-14.875 0-3.6875 1.34375-7.0625 3.566407-9.664063zm0 0" fill="#babac0"/><path d="m283.367188 308.566406c1.933593 2.511719 3.082031 6.25 3.082031 9.664063 0 8.214843-6.660157 14.875-14.871094 14.875-8.214844 0-14.875-6.660157-14.875-14.875 0-3.6875 1.34375-7.0625 3.566406-9.664063zm0 0" fill="#babac0"/><path d="m166.90625 205.675781c-1.777344 0-3.566406-.609375-5.023438-1.859375l-34.59375-29.648437c-3.238281-2.777344-3.613281-7.65625-.835937-10.894531 2.773437-3.238282 7.652344-3.617188 10.894531-.839844l34.59375 29.648437c3.238282 2.777344 3.613282 7.65625.835938 10.898438-1.527344 1.78125-3.691406 2.695312-5.871094 2.695312zm0 0" fill="#ea4444"/><path d="m307.980469 316.207031h-143.972657c-4.136718 0-7.539062-3.257812-7.71875-7.390625-.390624-9.011718 2.550782-18.871094 8.742188-29.304687 4.421875-7.453125 8.976562-12.515625 9.164062-12.726563 2.863282-3.167968 7.75-3.410156 10.914063-.550781s3.410156 7.742187.558594 10.90625c-3.25 3.617187-10.582031 13.566406-13.09375 23.613281h135.40625c4.269531 0 7.726562 3.460938 7.726562 7.726563s-3.457031 7.726562-7.726562 7.726562zm0 0" fill="#babac0"/><path d="m159.984375 191.671875 147.003906 9.273437c2.953125.1875 5.144531 2.8125 4.800781 5.75l-7.46875 63.75c-.296874 2.542969-2.410156 4.480469-4.96875 4.558594l-124.828124 3.796875zm0 0" fill="#ea4444"/><path d="m311.789062 206.695312-7.472656 63.75c-.296875 2.539063-2.414062 4.480469-4.960937 4.5625l-12.488281.382813c1.28125-.835937 2.179687-2.210937 2.363281-3.820313l7.710937-65.792968c.296875-2.589844-1.3125-4.953125-3.695312-5.695313l13.746094.867188c2.949218.183593 5.136718 2.804687 4.796874 5.746093zm0 0" fill="#d93131"/></svg>