<svg width="28" height="28" viewBox="0 0 28 28" fill="none" xmlns="http://www.w3.org/2000/svg">
<g clip-path="url(#clip0)">
<path d="M0.546814 14.7607C0.546814 20.5591 4.20668 24.4988 8.72133 24.4988C13.236 24.4988 16.8958 20.5591 16.8958 14.7607C16.8958 8.96228 13.236 3.50098 8.72133 3.50098C4.20668 3.50098 0.546814 8.96234 0.546814 14.7607Z" fill="#FFD89E"/>
<path d="M23.474 21.1895C19.3739 25.2896 14.0002 25.4875 10.8079 22.2952C7.61555 19.1029 7.81344 13.7292 11.9135 9.62904C16.0137 5.52894 22.4633 4.25512 25.6556 7.44745C28.8479 10.6398 27.5741 17.0894 23.474 21.1895Z" fill="#FFE6C0"/>
<path d="M26.0423 7.06066C24.3927 5.41113 21.9032 4.77315 19.0327 5.26447C17.6586 5.49966 16.2767 5.98988 14.9786 6.68571C13.3127 4.30846 11.053 2.9541 8.72128 2.9541C6.38849 2.9541 4.17715 4.2633 2.4947 6.64049C0.909306 8.88064 0 11.8403 0 14.7606C0 17.6496 0.897659 20.2781 2.52756 22.1619C4.13653 24.0215 6.33616 25.0456 8.72133 25.0456C10.0311 25.0456 11.2745 24.7431 12.4213 24.1463C13.5652 24.7368 14.8465 25.0458 16.1934 25.0458C16.4073 25.0458 16.623 25.038 16.84 25.0223C19.3245 24.8428 21.8179 23.6188 23.8607 21.5761C25.9258 19.511 27.3756 16.7753 27.8385 14.0702C28.3297 11.1996 27.6918 8.7102 26.0423 7.06066ZM26.7605 13.8857C26.3348 16.3729 24.996 18.8941 23.0873 20.8028C19.3214 24.5688 14.3198 25.0337 11.1945 21.9084C10.4239 21.1378 9.86008 20.2293 9.51876 19.2081C9.42301 18.9217 9.11297 18.767 8.82681 18.8628C8.54039 18.9585 8.3858 19.2683 8.4815 19.5548C8.87696 20.7381 9.52959 21.7902 10.4211 22.6818C10.7027 22.9634 11.001 23.2209 11.3137 23.4541C10.4956 23.7848 9.62698 23.952 8.72128 23.952C4.30156 23.952 1.09364 20.0864 1.09364 14.7606C1.09364 12.0613 1.92973 9.33193 3.38744 7.27228C4.85909 5.19289 6.75338 4.04774 8.72133 4.04774C10.6663 4.04774 12.5801 5.20426 14.0319 7.23936C13.13 7.81243 12.2833 8.48584 11.5269 9.24225C10.0132 10.7558 8.9388 12.524 8.41965 14.3556C8.3373 14.6461 8.5061 14.9484 8.79663 15.0308C9.08721 15.113 9.38949 14.9443 9.47184 14.6538C9.94019 13.0014 10.9182 11.3975 12.3002 10.0156C14.2089 8.10689 16.7301 6.76806 19.2172 6.34247C21.7282 5.91261 23.8774 6.44243 25.2689 7.83403C26.6605 9.22557 27.1902 11.3748 26.7605 13.8857Z" fill="black"/>
<path d="M8.60419 16.4058C8.46038 16.4058 8.3193 16.4643 8.21759 16.566C8.11588 16.6677 8.05737 16.8088 8.05737 16.9526C8.05737 17.0964 8.11588 17.2375 8.21759 17.3392C8.3193 17.4409 8.45983 17.4994 8.60419 17.4994C8.74801 17.4994 8.88908 17.4409 8.99079 17.3392C9.0925 17.2375 9.15101 17.0964 9.15101 16.9526C9.15101 16.8088 9.0925 16.6677 8.99079 16.566C8.88908 16.4643 8.74801 16.4058 8.60419 16.4058Z" fill="black"/>
</g>
<defs>
<clipPath id="clip0">
<rect width="28" height="28" fill="white"/>
</clipPath>
</defs>
</svg>
