<svg width="48" height="48" viewBox="0 0 48 48" fill="none" xmlns="http://www.w3.org/2000/svg">
<path d="M36.6562 11.4375C36.2812 10.125 31.9688 2.4375 24 2.4375C16.0312 2.4375 11.7188 10.125 11.3438 11.4375H36.6562Z" fill="#EFEFFB"/>
<path d="M34.2101 45.5625H13.4831C12.8743 45.5625 12.2719 45.4389 11.7122 45.1993C11.1525 44.9597 10.6473 44.609 10.2271 44.1684C9.80693 43.7279 9.48049 43.2067 9.26756 42.6363C9.05464 42.066 8.95966 41.4584 8.98838 40.8502L10.3759 11.5001H37.3185L38.706 40.8502C38.7347 41.4585 38.6397 42.0662 38.4267 42.6366C38.2137 43.207 37.8872 43.7283 37.4669 44.1689C37.0465 44.6094 36.5412 44.9601 35.9814 45.1996C35.4216 45.4392 34.819 45.5626 34.2101 45.5625Z" fill="#FCE277"/>
<path d="M35.8211 28.1472C35.6525 28.1471 35.4904 28.0821 35.3685 27.9657C35.2465 27.8493 35.174 27.6905 35.166 27.5221L34.9875 23.7488C34.9793 23.5748 35.0405 23.4046 35.1578 23.2757C35.2751 23.1469 35.4387 23.0698 35.6128 23.0616C35.7868 23.0534 35.957 23.1147 36.0859 23.232C36.2148 23.3492 36.2918 23.5129 36.3 23.687L36.4781 27.4602C36.4822 27.5463 36.4693 27.6323 36.4401 27.7134C36.4109 27.7944 36.3661 27.869 36.3081 27.9327C36.2501 27.9964 36.1801 28.0481 36.1022 28.0848C36.0242 28.1214 35.9398 28.1424 35.8537 28.1464C35.8421 28.1472 35.8316 28.1472 35.8211 28.1472Z" fill="#E8BE56"/>
<path d="M25.2454 24.5438C25.2455 25.0349 25.1163 25.5174 24.8708 25.9426C24.6252 26.3679 24.272 26.721 23.8466 26.9663C23.4204 26.7216 23.0663 26.3688 22.82 25.9435C22.5738 25.5181 22.4441 25.0353 22.4441 24.5438C22.4441 24.0524 22.5738 23.5696 22.82 23.1442C23.0663 22.7189 23.4204 22.3661 23.8466 22.1213C24.272 22.3667 24.6252 22.7198 24.8708 23.1451C25.1163 23.5703 25.2455 24.0528 25.2454 24.5438Z" fill="#E8BE56"/>
<path d="M25.2454 24.5438C25.2455 25.0349 25.1163 25.5174 24.8708 25.9426C24.6252 26.3679 24.272 26.721 23.8466 26.9663C23.4204 26.7216 23.0663 26.3688 22.82 25.9435C22.5738 25.5181 22.4441 25.0353 22.4441 24.5438C22.4441 24.0524 22.5738 23.5696 22.82 23.1442C23.0663 22.7189 23.4204 22.3661 23.8466 22.1213C24.272 22.3667 24.6252 22.7198 24.8708 23.1451C25.1163 23.5703 25.2455 24.0528 25.2454 24.5438Z" fill="#E8BE56"/>
<path d="M26.6449 29.4418C26.2977 29.7891 25.8652 30.0389 25.3908 30.166C24.9164 30.2931 24.4169 30.2929 23.9426 30.1655C23.8143 29.6911 23.8135 29.1912 23.9401 28.7164C24.0668 28.2415 24.3165 27.8085 24.664 27.461C25.0116 27.1135 25.4446 26.8639 25.9195 26.7372C26.3944 26.6106 26.8942 26.6115 27.3686 26.7399C27.4959 27.2141 27.496 27.7135 27.3689 28.1878C27.2419 28.6621 26.9922 29.0946 26.6449 29.4418Z" fill="#E8BE56"/>
<path d="M21.0487 29.4417C21.3956 29.7888 21.8278 30.0384 22.3018 30.1654C22.7757 30.2925 23.2748 30.2925 23.7487 30.1655C23.877 29.6913 23.8779 29.1917 23.7513 28.717C23.6248 28.2424 23.3753 27.8095 23.0281 27.462C22.6808 27.1146 22.2481 26.8649 21.7735 26.7381C21.2989 26.6113 20.7993 26.6119 20.325 26.7399C20.1976 27.2141 20.1975 27.7135 20.3245 28.1879C20.4516 28.6622 20.7014 29.0947 21.0487 29.4417Z" fill="#E8BE56"/>
<path d="M26.6449 34.0662C26.2977 34.4135 25.8652 34.6633 25.3908 34.7904C24.9164 34.9175 24.4169 34.9173 23.9426 34.7899C23.8143 34.3155 23.8135 33.8156 23.9401 33.3408C24.0668 32.8659 24.3165 32.4329 24.664 32.0854C25.0116 31.7379 25.4446 31.4882 25.9195 31.3616C26.3944 31.235 26.8942 31.2359 27.3686 31.3643C27.4959 31.8385 27.496 32.3379 27.3689 32.8122C27.2419 33.2865 26.9922 33.719 26.6449 34.0662Z" fill="#E8BE56"/>
<path d="M21.0487 34.0661C21.3956 34.4132 21.8278 34.6628 22.3018 34.7898C22.7757 34.9169 23.2748 34.9169 23.7487 34.7899C23.877 34.3157 23.8779 33.8161 23.7513 33.3414C23.6248 32.8667 23.3753 32.4339 23.0281 32.0864C22.6808 31.739 22.2481 31.4893 21.7735 31.3625C21.2989 31.2357 20.7993 31.2363 20.325 31.3643C20.1976 31.8385 20.1975 32.3379 20.3245 32.8122C20.4516 33.2866 20.7014 33.719 21.0487 34.0661Z" fill="#E8BE56"/>
<path d="M23.8466 38.1977C23.6726 38.1976 23.5057 38.1284 23.3827 38.0054C23.2596 37.8823 23.1905 37.7154 23.1904 37.5414V26.9664C23.1904 26.7924 23.2595 26.6255 23.3826 26.5024C23.5057 26.3793 23.6726 26.3102 23.8466 26.3102C24.0207 26.3102 24.1876 26.3793 24.3107 26.5024C24.4337 26.6255 24.5029 26.7924 24.5029 26.9664V37.5414C24.5029 37.7155 24.4337 37.8824 24.3107 38.0055C24.1876 38.1285 24.0207 38.1977 23.8466 38.1977Z" fill="#E8BE56"/>
<path d="M38.5605 11.0408L38.646 11.7195C38.683 12.013 38.6618 12.3109 38.5835 12.5962C38.5053 12.8815 38.3715 13.1486 38.19 13.3821C38.0084 13.6156 37.7825 13.8111 37.5254 13.9572C37.2682 14.1034 36.9847 14.1974 36.6911 14.2339L27.9607 15.318C25.3303 15.6446 22.6696 15.6446 20.0392 15.318L11.3089 14.2339C11.0153 14.1974 10.7318 14.1034 10.4746 13.9572C10.2174 13.8111 9.99158 13.6156 9.81 13.3821C9.62843 13.1486 9.49469 12.8815 9.41644 12.5962C9.3382 12.3109 9.31697 12.013 9.35399 11.7195L9.43949 11.0408C9.50799 10.497 9.77259 9.997 10.1836 9.63451C10.5946 9.27203 11.1238 9.07202 11.6719 9.07202H36.3281C36.8761 9.07202 37.4053 9.27203 37.8164 9.63451C38.2274 9.997 38.492 10.497 38.5605 11.0408Z" fill="#E8BE56"/>
</svg>
