<svg width="34" height="34" viewBox="0 0 34 34" fill="none" xmlns="http://www.w3.org/2000/svg">
<g clip-path="url(#clip0)">
<path d="M27.5207 23.1767L18.1232 30.8432C17.6705 31.2125 17.079 31.3654 16.504 31.2617C15.9291 31.158 15.4283 30.8081 15.1331 30.304L13.2113 27.0244C13.9535 27.0229 14.6829 27.4551 15.4485 26.8306C16.5333 25.9456 15.5219 24.7058 16.6036 23.8234C17.6853 22.9409 18.6998 24.1782 19.7846 23.2932C20.8694 22.4082 19.858 21.1684 20.9428 20.2834C22.0276 19.3984 23.039 20.6382 24.1238 19.7532C24.8925 19.1261 24.6155 18.3248 24.766 17.598L26.066 18.7676L26.0685 18.7707L27.5928 20.1392C28.0274 20.5296 28.2696 21.0906 28.2557 21.6746C28.2419 22.2586 27.9733 22.8074 27.5207 23.1767Z" fill="#F5F5F5"/>
<path d="M23.194 20.5119C23.356 20.3826 23.4887 20.2204 23.5831 20.0359C22.6981 20.2773 21.8447 19.5477 20.9428 20.2835C20.7813 20.4123 20.6494 20.5745 20.5563 20.7589C21.4409 20.5183 22.292 21.2477 23.194 20.5119Z" fill="#CFD8DC"/>
<path d="M18.8548 24.0518C19.0163 23.923 19.1481 23.7608 19.2413 23.5764C18.3578 23.816 17.5055 23.0876 16.6036 23.8234C16.442 23.9522 16.3102 24.1145 16.2173 24.2991C17.1022 24.0588 17.9531 24.7873 18.8548 24.0518Z" fill="#CFD8DC"/>
<path d="M14.5186 27.5891C14.6801 27.4604 14.8121 27.2985 14.9057 27.1144C14.3349 27.2703 13.7767 27.0226 13.2122 27.0236L13.733 27.9151C14.0223 27.8903 14.2968 27.7764 14.5186 27.5891Z" fill="#CFD8DC"/>
<path d="M27.5928 20.1393L26.0685 18.7707L26.066 18.7676L24.766 17.5981C24.6678 18.0726 24.7471 18.5778 24.6031 19.0468L25.1362 19.5262L25.1387 19.5293L26.663 20.8978C27.0976 21.2882 27.3398 21.8492 27.3259 22.4332C27.312 23.0172 27.0435 23.566 26.5908 23.9353L27.5207 23.1768C27.9733 22.8074 28.2418 22.2587 28.2557 21.6746C28.2696 21.0906 28.0274 20.5297 27.5928 20.1393Z" fill="#CFD8DC"/>
<path d="M24.766 17.5981C24.6155 18.3248 24.8925 19.1262 24.1238 19.7532C23.039 20.6382 22.0276 19.3985 20.9428 20.2834C19.858 21.1684 20.8694 22.4082 19.7846 23.2932C18.6998 24.1782 17.6884 22.9384 16.6036 23.8234C15.5188 24.7084 16.5333 25.9456 15.4485 26.8306C14.6829 27.4552 13.9535 27.023 13.2113 27.0244L8.33319 18.6973L17.5881 11.1471L22.4395 15.5056L24.766 17.5981Z" fill="#02A9F4"/>
<path d="M22.4395 15.5056L17.5881 11.1471L16.6583 11.9056L21.5097 16.2642L23.8362 18.3566C23.7205 18.9109 23.8518 19.5059 23.5831 20.0358C23.7814 19.9812 23.9658 19.8849 24.1238 19.7532C24.8925 19.1262 24.6155 18.3248 24.766 17.598L22.4395 15.5056Z" fill="#0377BC"/>
<path d="M17.5881 11.1471L8.3332 18.6973L7.10433 16.6025L15.7828 9.52259L17.5881 11.1471Z" fill="#7F8E94"/>
<path d="M15.7827 9.52257L14.8529 10.2811L16.6583 11.9056L17.5881 11.1471L15.7827 9.52257Z" fill="#545C60"/>
<path d="M13.0539 5.59543L15.7131 9.42454L15.7827 9.52258L7.10431 16.6025L2.26416 14.599C2.13481 14.5448 2.04333 14.4267 2.02308 14.2879C2.00283 14.1491 2.05676 14.0099 2.16521 13.9209L12.4708 5.51354C12.5577 5.44372 12.6697 5.41291 12.7801 5.42842C12.8905 5.44392 12.9895 5.50436 13.0539 5.59543Z" fill="#02A9F4"/>
<path d="M12.4708 5.51354L11.541 6.27209C11.6279 6.20227 11.7398 6.17146 11.8502 6.18697C11.9606 6.20248 12.0597 6.26292 12.124 6.35398L14.7832 10.1831L14.8529 10.2811L15.7827 9.52258L15.7131 9.42454L13.0539 5.59543C12.9895 5.50436 12.8904 5.44392 12.78 5.42841C12.6696 5.41291 12.5577 5.44371 12.4708 5.51354Z" fill="#0377BC"/>
<path d="M23.388 10.1633C24.2828 13.6457 25.4056 16.9267 26.066 18.7677L24.766 17.5981L22.4395 15.5057C22.0587 14.3554 21.5935 12.8043 21.0673 10.7609C20.5942 8.92186 19.809 9.12365 19.5143 9.19894C18.3906 9.48581 17.4977 10.7769 17.5881 11.1471L15.7828 9.52262L15.7131 9.42458C16.5238 7.9631 18.385 6.5428 20.2483 6.78299C21.1271 6.89203 22.6989 7.48361 23.388 10.1633Z" fill="#0377BC"/>
<path d="M12.5477 19.3936C12.3913 19.4893 12.32 19.6792 12.3748 19.8542L12.7205 20.9557L11.7109 20.3958C11.5503 20.3066 11.3496 20.3382 11.2242 20.4725C11.0989 20.6068 11.0811 20.8092 11.1811 20.9632L13.1469 24.0056C13.2668 24.1911 13.5145 24.2442 13.7 24.1243C13.8855 24.0043 13.9386 23.7566 13.8186 23.5711L12.719 21.8695L13.2083 22.1415C13.3514 22.221 13.5286 22.2053 13.6555 22.1018C13.7824 21.9983 13.8334 21.8279 13.7842 21.6717L13.616 21.1378L15.0621 22.5567C15.2076 22.6995 15.4373 22.7101 15.5953 22.5812C15.6068 22.5718 15.6177 22.5618 15.6281 22.5513C15.7824 22.394 15.7805 22.1417 15.624 21.9868L13.0384 19.4502C12.9074 19.3205 12.7048 19.2971 12.5477 19.3936Z" fill="#F5F5F5"/>
<path d="M14.0537 18.1604C13.8825 18.3 13.8569 18.552 13.9966 18.7232L16.2723 21.5126C16.4119 21.6838 16.6639 21.7094 16.8351 21.5697C17.0062 21.4301 17.0318 21.1781 16.8921 21.0069L14.6165 18.2174C14.4768 18.0463 14.2248 18.0207 14.0537 18.1604Z" fill="#F5F5F5"/>
<path d="M18.8089 18.9271L17.8791 19.6856L15.8562 17.2061C15.7166 17.0349 15.4646 17.0094 15.2934 17.149C15.1223 17.2886 15.0967 17.5406 15.2364 17.7118L17.512 20.5013C17.6517 20.6725 17.9037 20.698 18.0748 20.5584L19.3146 19.547C19.4858 19.4073 19.5113 19.1553 19.3717 18.9842C19.2321 18.813 18.9801 18.7874 18.8089 18.9271Z" fill="#F5F5F5"/>
<path d="M21.3667 17.0907L19.4248 16.3917L19.3553 14.6612C19.3463 14.4405 19.1601 14.2689 18.9393 14.2779C18.7186 14.2869 18.547 14.4731 18.556 14.6938L18.6157 16.1592L18.0258 15.4361C17.8862 15.2649 17.6342 15.2394 17.463 15.379C17.2918 15.5186 17.2663 15.7706 17.4059 15.9418L19.6816 18.7313C19.8213 18.9025 20.0732 18.928 20.2444 18.7884C20.4156 18.6487 20.4411 18.3968 20.3015 18.2256L19.5288 17.2784L21.0959 17.8433C21.3024 17.9135 21.5271 17.8052 21.6009 17.6C21.6748 17.3948 21.5706 17.1682 21.3667 17.0907Z" fill="#F5F5F5"/>
<path d="M18.1483 28.2417L16.8592 29.2934L16.4861 28.6562C16.3744 28.4655 16.1292 28.4014 15.9385 28.5131C15.7478 28.6248 15.6837 28.8699 15.7954 29.0606L16.1686 29.6978C16.2867 29.8994 16.487 30.0394 16.717 30.0809C16.947 30.1224 17.1836 30.0612 17.3646 29.9135L18.654 28.8616C18.8252 28.722 18.8507 28.47 18.7111 28.2988C18.5715 28.1277 18.3195 28.1021 18.1483 28.2417Z" fill="black"/>
<path d="M15.7014 8.70469L13.3803 5.36475C13.2522 5.18297 13.0544 5.06246 12.8341 5.03192C12.6138 5.00139 12.3908 5.06356 12.218 5.20363L1.91237 13.611C1.6947 13.7876 1.58656 14.066 1.62801 14.3432C1.66672 14.6226 1.85064 14.8606 2.11127 14.9685L6.82699 16.9206L14.7884 30.5067C15.1428 31.1114 15.7437 31.531 16.4335 31.6553C17.1233 31.7796 17.8329 31.5962 18.376 31.1532L27.7735 23.4867C28.3167 23.0435 28.639 22.385 28.6556 21.6842C28.6723 20.9833 28.3817 20.3102 27.8601 19.8417L26.4102 18.5384C25.6645 16.4537 24.6146 13.3234 23.7754 10.0636C23.0254 7.14656 21.2744 6.50753 20.2996 6.38647C18.4924 6.15311 16.6936 7.33411 15.7014 8.70469ZM8.85074 18.7913L17.5763 11.673L24.3419 17.7546C24.3236 17.9157 24.3125 18.0749 24.3071 18.2296C24.29 18.7231 24.277 19.1121 23.871 19.4433C23.4879 19.7559 23.1548 19.7178 22.6001 19.6237C21.9456 19.4053 21.2248 19.5373 20.6901 19.9734C20.1555 20.4096 19.8814 21.0892 19.964 21.7742C19.9444 22.3369 19.9148 22.6708 19.5317 22.9833C19.1487 23.2958 18.8156 23.2578 18.2608 23.1637C17.6048 22.9687 16.8951 23.0986 16.3507 23.5135C15.8362 23.9628 15.5674 24.6309 15.6276 25.3114C15.6083 25.8743 15.579 26.2079 15.1956 26.5207C14.7927 26.8494 14.4096 26.7841 13.9235 26.7021C13.7703 26.6763 13.6119 26.6549 13.4499 26.6404L8.85074 18.7913ZM18.0105 10.9878C18.3395 10.3279 18.9156 9.82431 19.6137 9.58655C19.8209 9.53366 20.3062 9.40976 20.6796 10.8609C20.9939 12.0819 21.3072 13.2056 21.6195 14.2321L18.0105 10.9878ZM12.7246 5.82275L15.2429 9.44681L9.95091 13.764C9.77973 13.9037 9.75417 14.1556 9.89382 14.3268C10.0335 14.498 10.2854 14.5236 10.4566 14.3839L15.7703 10.049L16.9745 11.1315L8.44112 18.0931L7.62249 16.696L8.9069 15.6482C9.07807 15.5085 9.10363 15.2566 8.96399 15.0854C8.82434 14.9142 8.57237 14.8886 8.40119 15.0283L7.03744 16.1409L2.41808 14.2309L12.7246 5.82275ZM27.8561 21.6642C27.8456 22.1319 27.6306 22.5715 27.2678 22.8668L17.8703 30.5333C17.5082 30.8288 17.035 30.951 16.575 30.8681C16.1151 30.7851 15.7144 30.5052 15.4783 30.1019L13.9651 27.5194C14.5713 27.6687 15.2124 27.5288 15.7013 27.1406C16.2174 26.6905 16.487 26.0208 16.4268 25.3387C16.4465 24.7775 16.4752 24.4444 16.8564 24.1334C17.2377 23.8224 17.5726 23.8589 18.1276 23.9527C18.7835 24.1478 19.4932 24.018 20.0375 23.6032C20.5532 23.1532 20.823 22.4841 20.7637 21.8022C20.783 21.2398 20.8126 20.906 21.1956 20.5934C21.5787 20.2809 21.9118 20.3189 22.4669 20.4128C23.1228 20.6079 23.8324 20.478 24.3767 20.0632C24.8563 19.6618 25.1232 19.0609 25.0995 18.4359L27.3253 20.4365C27.673 20.7486 27.8669 21.1971 27.8561 21.6642ZM23.0012 10.2605C23.6785 12.891 24.4908 15.4346 25.1732 17.4233L22.7883 15.2795C22.3519 13.9511 21.9034 12.3997 21.4552 10.6587C21.0762 9.18168 20.3893 8.5599 19.4159 8.80885C18.563 9.07752 17.8416 9.65562 17.3934 10.4294L16.2124 9.36776C17.0192 8.1154 18.6154 6.97326 20.1995 7.17745C20.9738 7.27619 22.3687 7.80461 23.0006 10.263L23.0012 10.2605Z" fill="black"/>
</g>
<defs>
<clipPath id="clip0">
<rect y="15.1711" width="24" height="24" transform="rotate(-39.2077 0 15.1711)" fill="white"/>
</clipPath>
</defs>
</svg>
