<svg width="29" height="29" viewBox="0 0 29 29" fill="none" xmlns="http://www.w3.org/2000/svg">
<g clip-path="url(#clip0)">
<path d="M9.67857 4.58154L11.9813 6.3735L10.7533 7.9515L8.45057 6.15954L9.67857 4.58154Z" fill="#95A5A5"/>
<path d="M26.279 29H2.721C2.29002 29.0005 1.90719 28.7249 1.771 28.316L1 26L14.5 25L28 26L27.228 28.316C27.0919 28.7245 26.7096 29.0001 26.279 29Z" fill="#2FA8CC"/>
<path d="M20.505 12.9999H26C26.5516 13.0015 26.9984 13.4483 27 13.9999V23.9999H2.00001V13.9999C2.00166 13.4483 2.44841 13.0015 3.00001 12.9999H20.505Z" fill="#F3D55B"/>
<path d="M20.895 13.9349L20.59 14.3299C20.1021 14.9586 19.3843 15.3676 18.5948 15.467C17.8052 15.5664 17.0085 15.348 16.38 14.8599L15.5 14.1749V13.4999C15.5 13.2238 15.2761 12.9999 15 12.9999H13.99L10.065 9.94493C9.85461 9.78356 9.71767 9.54461 9.68478 9.28152C9.65189 9.01842 9.72581 8.75312 9.89 8.54493L11.73 6.17493L20.505 12.9999L20.805 13.2349C20.9103 13.3154 20.9791 13.4347 20.996 13.5661C21.0129 13.6976 20.9766 13.8304 20.895 13.9349Z" fill="#BDC3C7"/>
<path d="M3.92818 0.107659L9.93523 4.78235L8.40023 6.75485C8.23068 6.97272 7.9166 7.0119 7.69873 6.84235L2.87518 3.08866C2.22155 2.58 2.10402 1.63779 2.61268 0.984159L3.22668 0.195159C3.39623 -0.0227172 3.7103 -0.0618922 3.92818 0.107659Z" fill="#35495E"/>
<path d="M5 15.5H4C3.72386 15.5 3.5 15.2761 3.5 15C3.5 14.7239 3.72386 14.5 4 14.5H5C5.27614 14.5 5.5 14.7239 5.5 15C5.5 15.2761 5.27614 15.5 5 15.5Z" fill="#F5EFCA"/>
<path d="M13 15.5H7C6.72386 15.5 6.5 15.2761 6.5 15C6.5 14.7239 6.72386 14.5 7 14.5H13C13.2761 14.5 13.5 14.7239 13.5 15C13.5 15.2761 13.2761 15.5 13 15.5Z" fill="#F5EFCA"/>
<path d="M2.00001 22.4999H27V24.4999H2.00001V22.4999Z" fill="#F0C419"/>
<path d="M0 24H29V25C29 25.5523 28.5523 26 28 26H1C0.447715 26 0 25.5523 0 25V24Z" fill="#67B9CC"/>
</g>
<defs>
<clipPath id="clip0">
<rect width="29" height="29" fill="white"/>
</clipPath>
</defs>
</svg>
