<svg width="38" height="39" viewBox="0 0 38 39" fill="none" xmlns="http://www.w3.org/2000/svg">
<path d="M38 20.9989C38 20.7634 37.8732 20.5462 37.6682 20.4303L37.668 20.4303C37.6674 20.4298 37.6667 20.4294 37.6661 20.4291C37.6283 20.404 37.588 20.3824 37.5457 20.3645L28.8712 16.488V4.82204C28.8712 4.8164 28.8711 4.81083 28.871 4.80526C28.8709 4.8034 28.8709 4.80162 28.8708 4.79976C28.8708 4.79605 28.8706 4.79226 28.8704 4.78855C28.8703 4.78632 28.8702 4.78409 28.8701 4.78187C28.8699 4.77711 28.8696 4.77229 28.8692 4.76753C28.869 4.76419 28.8687 4.76093 28.8684 4.75766C28.8682 4.75595 28.8681 4.75417 28.8679 4.75246C28.854 4.6038 28.7963 4.46783 28.7079 4.35763C28.7066 4.35607 28.7054 4.35451 28.7041 4.35295C28.7023 4.3508 28.7006 4.34864 28.6988 4.34649C28.6969 4.34426 28.6951 4.34203 28.6931 4.33981C28.6917 4.33817 28.6904 4.33654 28.689 4.33498C28.6856 4.33112 28.6822 4.32726 28.6787 4.32347C28.6781 4.32273 28.6774 4.32198 28.6766 4.32124C28.6735 4.31783 28.6703 4.31441 28.6671 4.31107C28.6664 4.31025 28.6657 4.30951 28.6648 4.30869C28.6613 4.30498 28.6577 4.30127 28.6541 4.29763C28.6538 4.2974 28.6536 4.29718 28.6534 4.29696C28.6493 4.29288 28.6452 4.28879 28.6409 4.28478C28.6408 4.28463 28.6406 4.28456 28.6406 4.28441C28.6367 4.28077 28.6328 4.27713 28.6289 4.27357C28.6282 4.2729 28.6274 4.27223 28.6267 4.27156C28.6231 4.26837 28.6195 4.2651 28.6158 4.26198C28.6152 4.26146 28.6146 4.26087 28.614 4.26035C28.6099 4.25686 28.6058 4.25337 28.6016 4.24995C28.6005 4.24899 28.5993 4.24802 28.5982 4.24713C28.5954 4.2449 28.5926 4.2426 28.5898 4.24037C28.5879 4.23889 28.586 4.2374 28.5841 4.23592C28.582 4.23429 28.5799 4.23265 28.5777 4.23102C28.5283 4.19337 28.474 4.16181 28.4158 4.13738L19.303 0.0646048C19.1102 -0.0215349 18.8898 -0.0215349 18.6971 0.0646048L9.58393 4.13723C9.52586 4.16166 9.47158 4.19322 9.42212 4.23087C9.41997 4.2325 9.41781 4.23414 9.41574 4.23577C9.4138 4.23726 9.41195 4.23874 9.41009 4.24023C9.40727 4.24245 9.40452 4.24468 9.4017 4.24698C9.40051 4.24795 9.39932 4.24884 9.39821 4.24981C9.39405 4.25322 9.38997 4.25671 9.38588 4.2602C9.38529 4.26072 9.3847 4.26124 9.38403 4.26184C9.38039 4.26495 9.37675 4.26822 9.37319 4.27141C9.37244 4.27208 9.3717 4.27275 9.37096 4.27342C9.36702 4.27698 9.36316 4.28062 9.3593 4.28426C9.35915 4.28441 9.35908 4.28448 9.35893 4.28463C9.35469 4.28864 9.35054 4.29273 9.34645 4.29681C9.34623 4.29703 9.34601 4.29726 9.34578 4.29748C9.34214 4.30112 9.33858 4.30483 9.33502 4.30854C9.33427 4.30936 9.33346 4.3101 9.33271 4.31092C9.32952 4.31426 9.32633 4.31768 9.32321 4.32109C9.32254 4.32184 9.3218 4.32258 9.32113 4.32332C9.31771 4.32711 9.3143 4.33097 9.31088 4.33483C9.30947 4.33639 9.30813 4.33802 9.30672 4.33966C9.30487 4.34189 9.30294 4.34411 9.30108 4.34634C9.2993 4.34849 9.29752 4.35065 9.29573 4.3528C9.29447 4.35436 9.29321 4.35592 9.29202 4.35748C9.2035 4.46768 9.14581 4.60357 9.13199 4.75231C9.13185 4.75402 9.1317 4.7558 9.13155 4.75751C9.13125 4.76085 9.13095 4.76412 9.13073 4.76739C9.13036 4.77214 9.13006 4.77697 9.12984 4.78172C9.12969 4.78395 9.12962 4.78617 9.12954 4.7884C9.12939 4.79211 9.12925 4.7959 9.1291 4.79961C9.12902 4.80147 9.12902 4.80325 9.12895 4.80511C9.1288 4.81068 9.12873 4.81632 9.12873 4.82189V16.4877L0.454238 20.3645C0.454015 20.3645 0.453793 20.3646 0.45357 20.3648C0.17926 20.4798 0 20.7479 0 21.0454V21.0489V33.1961C0 33.489 0.172131 33.7545 0.439609 33.874C0.439609 33.874 9.56938 37.954 9.5699 37.9543L9.5742 37.9562C9.76222 38.0411 9.97772 38.0416 10.166 37.9572L10.1743 37.9535L19 34.0094L27.8258 37.9537C27.8259 37.9537 27.8373 37.958 27.8557 37.965C28.0417 38.0357 28.2486 38.0318 28.4316 37.9537C28.4317 37.9537 28.4317 37.9536 28.4317 37.9536L37.5604 33.874C37.8278 33.7545 38 33.489 38 33.1961V21.0489V20.9989ZM28.1288 24.3152L20.82 21.0489L28.1288 17.7826L35.4375 21.0489L28.1288 24.3152ZM19 11.8487C19.4101 11.8487 19.7425 11.5163 19.7425 11.1062V9.38321L27.3862 5.96733V16.4878L19.7425 19.9038V17.8198C19.7425 17.4096 19.4101 17.0772 19 17.0772C18.59 17.0772 18.2575 17.4096 18.2575 17.8198V19.9038L10.6139 16.4878V5.96733L18.2575 9.38321V11.1062C18.2575 11.5164 18.59 11.8487 19 11.8487ZM19 1.55586L26.3088 4.82219L19 8.08837L11.6912 4.82211L19 1.55586ZM9.87131 17.7826L17.1801 21.0489L9.87131 24.3152L2.56258 21.0489L9.87131 17.7826ZM1.48509 22.1941L9.14885 25.6191C9.13571 25.6744 9.12873 25.732 9.12873 25.7913V36.1306L1.48509 32.7146V22.1941ZM10.5937 25.619L18.2575 22.1941V32.7147L10.6138 36.1306V25.7913C10.6138 25.732 10.6068 25.6743 10.5937 25.619ZM19.7425 22.1941L27.4063 25.6191C27.3932 25.6744 27.3862 25.732 27.3862 25.7913V36.1306L19.7425 32.7146V22.1941ZM28.8713 36.1306V25.7913C28.8713 25.7319 28.8643 25.6742 28.8511 25.619L36.5149 22.194V32.7146L28.8713 36.1306Z" fill="black"/>
<path d="M19 15.1917C18.6858 15.1917 18.3976 14.9857 18.2968 14.6878C18.2018 14.4071 18.2872 14.0865 18.5104 13.8911C18.7537 13.678 19.1171 13.6492 19.3918 13.8191C19.6551 13.982 19.7913 14.3041 19.7251 14.6065C19.6512 14.9437 19.3458 15.1917 19 15.1917Z" fill="black"/>
</svg>
