<svg width="20" height="20" viewBox="0 0 20 20" fill="none" xmlns="http://www.w3.org/2000/svg">
<g filter="url(#filter0_d)">
<g clip-path="url(#clip0)">
<path d="M7.86627 7.7579H7.86682C7.86728 7.7579 7.86774 7.75781 7.8682 7.75781H14.2422C14.3991 7.75781 14.5371 7.65372 14.5802 7.50284L15.9865 2.58096C16.0168 2.47485 15.9955 2.36078 15.9291 2.27271C15.8627 2.18463 15.7588 2.13281 15.6484 2.13281H7.05548L6.80417 1.00186C6.76837 0.841003 6.62573 0.726562 6.46094 0.726562H4.35156C4.15738 0.726562 4 0.883942 4 1.07812C4 1.27231 4.15738 1.42969 4.35156 1.42969H6.17896C6.22345 1.6301 7.38159 6.84183 7.44824 7.14166C7.07462 7.30408 6.8125 7.67661 6.8125 8.10938C6.8125 8.69092 7.28565 9.16406 7.86719 9.16406H14.2422C14.4364 9.16406 14.5938 9.00668 14.5938 8.8125C14.5938 8.61832 14.4364 8.46094 14.2422 8.46094H7.86719C7.67337 8.46094 7.51563 8.30319 7.51563 8.10938C7.51563 7.91583 7.67282 7.75836 7.86627 7.7579ZM15.1823 2.83594L13.977 7.05469H8.14917L7.21167 2.83594H15.1823Z" fill="black"/>
<path d="M7.51562 10.2188C7.51562 10.8003 7.98877 11.2734 8.57031 11.2734C9.15186 11.2734 9.625 10.8003 9.625 10.2188C9.625 9.63721 9.15186 9.16406 8.57031 9.16406C7.98877 9.16406 7.51562 9.63721 7.51562 10.2188ZM8.57031 9.86719C8.76413 9.86719 8.92188 10.0249 8.92188 10.2188C8.92188 10.4126 8.76413 10.5703 8.57031 10.5703C8.3765 10.5703 8.21875 10.4126 8.21875 10.2188C8.21875 10.0249 8.3765 9.86719 8.57031 9.86719Z" fill="black"/>
<path d="M12.4844 10.2188C12.4844 10.8003 12.9575 11.2734 13.5391 11.2734C14.1206 11.2734 14.5938 10.8003 14.5938 10.2188C14.5938 9.63721 14.1206 9.16406 13.5391 9.16406C12.9575 9.16406 12.4844 9.63721 12.4844 10.2188ZM13.5391 9.86719C13.7329 9.86719 13.8906 10.0249 13.8906 10.2188C13.8906 10.4126 13.7329 10.5703 13.5391 10.5703C13.3452 10.5703 13.1875 10.4126 13.1875 10.2188C13.1875 10.0249 13.3452 9.86719 13.5391 9.86719Z" fill="black"/>
</g>
</g>
<defs>
<filter id="filter0_d" x="0" y="0" width="20" height="20" filterUnits="userSpaceOnUse" color-interpolation-filters="sRGB">
<feFlood flood-opacity="0" result="BackgroundImageFix"/>
<feColorMatrix in="SourceAlpha" type="matrix" values="0 0 0 0 0 0 0 0 0 0 0 0 0 0 0 0 0 0 127 0"/>
<feOffset dy="4"/>
<feGaussianBlur stdDeviation="2"/>
<feColorMatrix type="matrix" values="0 0 0 0 0 0 0 0 0 0 0 0 0 0 0 0 0 0 0.25 0"/>
<feBlend mode="normal" in2="BackgroundImageFix" result="effect1_dropShadow"/>
<feBlend mode="normal" in="SourceGraphic" in2="effect1_dropShadow" result="shape"/>
</filter>
<clipPath id="clip0">
<rect x="4" width="12" height="12" fill="white"/>
</clipPath>
</defs>
</svg>
