<svg width="13" height="13" viewBox="0 0 13 13" fill="none" xmlns="http://www.w3.org/2000/svg">
<path d="M4.80298 10.5407H8.20235V12.2291H4.80298V10.5407Z" fill="#BABAC0"/>
<path d="M7.6311 10.5657H8.20229V12.2041H7.6311V10.5657Z" fill="#A1A1A7"/>
<path d="M0.698975 4.86429H12.3197V9.46515H0.698975V4.86429Z" fill="#C9F0FF"/>
<path d="M12.3198 3.34889V10.3463C12.3198 10.6909 12.0405 10.9701 11.6959 10.9701H10.9338C11.2784 10.9701 11.5577 10.6909 11.5577 10.3463V3.34889C11.5577 3.00433 11.2784 2.72504 10.9338 2.72504H11.6959C12.0405 2.72504 12.3198 3.00433 12.3198 3.34889V3.34889Z" fill="#9AE7FD"/>
<path d="M12.3198 9.46722H0.685547V10.3463C0.685547 10.6908 0.964844 10.9701 1.3094 10.9701H11.696C12.0405 10.9701 12.3198 10.6908 12.3198 10.3463V9.46722Z" fill="#ECECF1"/>
<path d="M12.3198 9.46713V10.3463C12.3198 10.6909 12.0405 10.9701 11.6959 10.9701H10.9338C11.2784 10.9701 11.5577 10.6909 11.5577 10.3463V9.46713H12.3198Z" fill="#D3D3D8"/>
<path d="M12.3336 4.85308H0.698975V3.34879C0.698975 3.00423 0.978272 2.72493 1.32283 2.72493H11.7099C12.0543 2.72493 12.3336 3.00423 12.3336 3.34879V4.85308Z" fill="#ECECF1"/>
<path d="M12.3337 3.34869V4.85319H11.5577V3.34869C11.5577 3.00433 11.2784 2.72504 10.9338 2.72504H11.7098C12.0544 2.72504 12.3337 3.00433 12.3337 3.34869Z" fill="#D3D3D8"/>
<path d="M9.3037 12.9999H3.70139C3.63385 12.9999 3.5791 12.9451 3.5791 12.8776V12.4814C3.5791 12.2127 3.797 11.9948 4.06569 11.9948H8.9395C9.20818 11.9948 9.42599 12.2127 9.42599 12.4814V12.8776C9.42599 12.9451 9.37124 12.9999 9.3037 12.9999Z" fill="#ECECF1"/>
<path d="M9.42606 12.4813V12.8777C9.42606 12.9453 9.37132 13 9.30377 13H8.87213V12.4813C8.87213 12.2128 8.65423 11.9949 8.38574 11.9949H8.93967C9.20826 11.9949 9.42606 12.2127 9.42606 12.4813Z" fill="#D3D3D8"/>
<path d="M1.89575 1.69095H11.1236V9.46514H1.89575V1.69095Z" fill="#FFE1A8"/>
<path d="M10.3091 1.69095H11.1237V9.46514H10.3091V1.69095Z" fill="#FFD98F"/>
<path d="M11.5967 1.92424H10.8705L9.68073 0.0952225C9.64195 0.0360107 9.5759 0.000106812 9.50488 0.000106812H10.2312C10.3022 0.000106812 10.3683 0.0360107 10.4069 0.0952225L11.5967 1.92424Z" fill="#F57C7C"/>
<path d="M11.5967 1.92433L10.4069 0.095314C10.3682 0.0359039 10.3021 0 10.2312 0H2.78805C2.71713 0 2.65098 0.0359039 2.6123 0.095314L1.42261 1.92433V1.92691L1.448 1.99187H11.5581L11.5968 1.92691L11.5967 1.92433Z" fill="#F89696"/>
<path d="M8.21785 1.92026C8.21785 2.8612 7.45504 3.62391 6.5142 3.62391C5.57326 3.62391 4.81055 2.8612 4.81055 1.92026H8.21785Z" fill="#FFCD6B"/>
<path d="M4.82991 1.92026C4.82991 2.8612 4.0671 3.62391 3.12626 3.62391C2.18532 3.62391 1.42261 2.8612 1.42261 1.92026H4.82991Z" fill="#EA4444"/>
<path d="M11.5968 1.92026C11.5968 2.8612 10.8339 3.62391 9.8931 3.62391C8.95216 3.62391 8.18945 2.8612 8.18945 1.92026H11.5968Z" fill="#EA4444"/>
<path d="M8.21767 1.92036C8.21767 2.86111 7.45486 3.62392 6.51411 3.62392C6.38657 3.62392 6.26219 3.60993 6.14258 3.58325C6.90459 3.41355 7.4744 2.73336 7.4744 1.92036H8.21767Z" fill="#FFC143"/>
<path d="M4.83002 1.92036C4.83002 2.86111 4.06712 3.62392 3.12608 3.62392C2.99863 3.62392 2.87415 3.60993 2.75464 3.58325C3.51685 3.41355 4.08646 2.73336 4.08646 1.92036H4.83002Z" fill="#D93131"/>
<path d="M11.5969 1.92036C11.5969 2.86111 10.8341 3.62392 9.89332 3.62392C9.76547 3.62392 9.6411 3.60993 9.52148 3.58325C10.2838 3.41375 10.8533 2.73356 10.8533 1.92036H11.5969Z" fill="#D93131"/>
<path d="M6.07155 7.83469C6.12064 7.89846 6.1498 7.99338 6.1498 8.08006C6.1498 8.28864 5.9807 8.45775 5.77222 8.45775C5.56364 8.45775 5.39453 8.28864 5.39453 8.08006C5.39453 7.98643 5.42865 7.90074 5.48508 7.83469H6.07155Z" fill="#BABAC0"/>
<path d="M7.88039 7.83469C7.92948 7.89846 7.95864 7.99338 7.95864 8.08006C7.95864 8.28864 7.78954 8.45775 7.58105 8.45775C7.37247 8.45775 7.20337 8.28864 7.20337 8.08006C7.20337 7.98643 7.23749 7.90074 7.29392 7.83469H7.88039Z" fill="#BABAC0"/>
<path d="M4.9235 5.22226C4.87837 5.22226 4.83295 5.20679 4.79595 5.17505L3.91759 4.42225C3.83537 4.35173 3.82585 4.22785 3.89637 4.14563C3.96679 4.06341 4.09066 4.05379 4.17299 4.12431L5.05135 4.8771C5.13357 4.94762 5.14309 5.0715 5.07257 5.15382C5.03379 5.19905 4.97885 5.22226 4.9235 5.22226Z" fill="#EA4444"/>
<path d="M8.50549 8.0287H4.84993C4.7449 8.0287 4.65851 7.94598 4.65395 7.84105C4.64403 7.61223 4.71871 7.3619 4.87592 7.09698C4.98819 6.90774 5.10384 6.7792 5.1086 6.77384C5.1813 6.69341 5.30538 6.68726 5.38571 6.75986C5.46605 6.83246 5.4723 6.95644 5.3999 7.03678C5.31738 7.12862 5.13121 7.38124 5.06744 7.63633H8.50549C8.61389 7.63633 8.70167 7.72421 8.70167 7.83252C8.70167 7.94083 8.61389 8.0287 8.50549 8.0287V8.0287Z" fill="#BABAC0"/>
<path d="M4.74756 4.86667L8.48009 5.10213C8.55507 5.10689 8.61072 5.17354 8.60199 5.24812L8.41235 6.86678C8.40481 6.93134 8.35116 6.98054 8.28619 6.98252L5.11672 7.07893L4.74756 4.86667Z" fill="#EA4444"/>
<path d="M8.60203 5.24812L8.41229 6.86677C8.40475 6.93124 8.351 6.98053 8.28633 6.98261L7.96924 6.99233C8.00177 6.97111 8.02458 6.9362 8.02924 6.89533L8.22503 5.22481C8.23257 5.15905 8.19171 5.09904 8.1312 5.0802L8.48023 5.10222C8.55511 5.10688 8.61066 5.17343 8.60203 5.24812V5.24812Z" fill="#D93131"/>
</svg>
