<svg width="20" height="21" viewBox="0 0 20 21" fill="none" xmlns="http://www.w3.org/2000/svg">
<g filter="url(#filter0_d)">
<path d="M15.6851 10.0291L13.2563 8.27419C12.948 8.05329 12.5349 8.12597 12.307 8.44123L11.5995 9.42676C11.5086 9.55665 11.3433 9.59433 11.2118 9.51517L11.0772 9.43478C10.6311 9.17133 10.0759 8.84333 8.95751 7.63118C7.83907 6.41902 7.53572 5.81715 7.29254 5.33469L7.21875 5.18889C7.14468 5.04641 7.1788 4.86658 7.29873 4.76728L8.20778 4.001C8.49865 3.7541 8.56583 3.3066 8.36217 2.97256L6.74241 0.341124C6.53368 0.000966273 6.11491 -0.101147 5.79178 0.1093L4.77613 0.770294C4.457 0.973555 4.22287 1.30274 4.12283 1.68888C3.7571 3.13263 4.03224 5.62433 7.42014 9.29525C10.1152 12.2148 12.1215 13 13.5005 13C13.8178 13.0014 14.1339 12.9567 14.4403 12.867C14.7968 12.7587 15.1007 12.505 15.2882 12.1592L15.8989 11.0595C16.0934 10.7093 15.9992 10.2553 15.6851 10.0291ZM15.5543 10.8372L14.945 11.9375C14.8104 12.1871 14.5918 12.3707 14.3351 12.4497C13.1049 12.8156 10.9556 12.5125 7.70309 8.98871C4.45056 5.46489 4.17083 3.13654 4.50858 1.80351C4.5816 1.52505 4.75122 1.28794 4.9819 1.14186L5.99756 0.481726C6.13776 0.390327 6.31952 0.43463 6.41009 0.58224L7.28997 2.01342L8.02847 3.21344C8.11691 3.35834 8.08785 3.55254 7.96168 3.65975L7.05242 4.42603C6.77571 4.65527 6.69669 5.07004 6.86705 5.39923L6.93925 5.54136C7.19482 6.04918 7.51257 6.68093 8.6726 7.93751C9.83263 9.19408 10.4156 9.53835 10.8841 9.81521L11.0154 9.89363C11.3193 10.0782 11.7021 9.9926 11.9137 9.69281L12.621 8.7077C12.72 8.57109 12.8992 8.53963 13.0329 8.63535L15.4616 10.3902C15.5979 10.4883 15.6388 10.6853 15.5543 10.8372Z" fill="white"/>
<path d="M10.7997 2.16686C12.6763 2.16912 14.1971 3.81677 14.1992 5.84993C14.1992 5.96958 14.2887 6.06657 14.3992 6.06657C14.5096 6.06657 14.5991 5.96958 14.5991 5.84993C14.5968 3.57756 12.8971 1.73607 10.7997 1.73358C10.6892 1.73358 10.5997 1.83057 10.5997 1.95022C10.5997 2.06988 10.6892 2.16686 10.7997 2.16686Z" fill="white"/>
<path d="M10.7997 3.46679C12.0139 3.46834 12.9979 4.53441 12.9994 5.84995C12.9994 5.9696 13.0889 6.06659 13.1993 6.06659C13.3098 6.06659 13.3993 5.9696 13.3993 5.84995C13.3976 4.2952 12.2347 3.03529 10.7997 3.03351C10.6892 3.03351 10.5997 3.13049 10.5997 3.25015C10.5997 3.36981 10.6892 3.46679 10.7997 3.46679Z" fill="white"/>
<path d="M10.7997 4.76669C11.3515 4.7674 11.7988 5.25197 11.7995 5.84995C11.7995 5.96961 11.889 6.06659 11.9994 6.06659C12.1098 6.06659 12.1993 5.96961 12.1993 5.84995C12.1985 5.01278 11.5723 4.33434 10.7997 4.3334C10.6892 4.3334 10.5997 4.43039 10.5997 4.55005C10.5997 4.6697 10.6892 4.76669 10.7997 4.76669Z" fill="white"/>
</g>
<defs>
<filter id="filter0_d" x="0" y="0" width="20" height="21" filterUnits="userSpaceOnUse" color-interpolation-filters="sRGB">
<feFlood flood-opacity="0" result="BackgroundImageFix"/>
<feColorMatrix in="SourceAlpha" type="matrix" values="0 0 0 0 0 0 0 0 0 0 0 0 0 0 0 0 0 0 127 0"/>
<feOffset dy="4"/>
<feGaussianBlur stdDeviation="2"/>
<feColorMatrix type="matrix" values="0 0 0 0 0 0 0 0 0 0 0 0 0 0 0 0 0 0 0.25 0"/>
<feBlend mode="normal" in2="BackgroundImageFix" result="effect1_dropShadow"/>
<feBlend mode="normal" in="SourceGraphic" in2="effect1_dropShadow" result="shape"/>
</filter>
</defs>
</svg>
