<svg width="25" height="27" viewBox="0 0 25 27" fill="none" xmlns="http://www.w3.org/2000/svg">
<rect width="25" height="25" rx="12.5" fill="white"/>
<g filter="url(#filter0_d)">
<path d="M17.6851 16.0291L15.2563 14.2742C14.948 14.0533 14.5349 14.126 14.307 14.4412L13.5995 15.4268C13.5086 15.5567 13.3433 15.5943 13.2118 15.5152L13.0772 15.4348C12.6311 15.1713 12.0759 14.8433 10.9575 13.6312C9.83907 12.419 9.53572 11.8172 9.29254 11.3347L9.21875 11.1889C9.14468 11.0464 9.1788 10.8666 9.29873 10.7673L10.2078 10.001C10.4986 9.7541 10.5658 9.3066 10.3622 8.97256L8.74241 6.34112C8.53368 6.00097 8.11491 5.89885 7.79178 6.1093L6.77613 6.77029C6.457 6.97356 6.22287 7.30274 6.12283 7.68888C5.7571 9.13263 6.03224 11.6243 9.42014 15.2952C12.1152 18.2148 14.1215 19 15.5005 19C15.8178 19.0014 16.1339 18.9567 16.4403 18.867C16.7968 18.7587 17.1007 18.505 17.2882 18.1592L17.8989 17.0595C18.0934 16.7093 17.9992 16.2553 17.6851 16.0291ZM17.5543 16.8372L16.945 17.9375C16.8104 18.1871 16.5918 18.3707 16.3351 18.4497C15.1049 18.8156 12.9556 18.5125 9.70309 14.9887C6.45056 11.4649 6.17083 9.13654 6.50858 7.80351C6.5816 7.52505 6.75122 7.28794 6.9819 7.14186L7.99756 6.48173C8.13776 6.39033 8.31952 6.43463 8.41009 6.58224L9.28997 8.01342L10.0285 9.21344C10.1169 9.35834 10.0878 9.55254 9.96168 9.65975L9.05242 10.426C8.77571 10.6553 8.69669 11.07 8.86705 11.3992L8.93925 11.5414C9.19482 12.0492 9.51257 12.6809 10.6726 13.9375C11.8326 15.1941 12.4156 15.5383 12.8841 15.8152L13.0154 15.8936C13.3193 16.0782 13.7021 15.9926 13.9137 15.6928L14.621 14.7077C14.72 14.5711 14.8992 14.5396 15.0329 14.6353L17.4616 16.3902C17.5979 16.4883 17.6388 16.6853 17.5543 16.8372Z" fill="black"/>
<path d="M12.7996 8.16686C14.6762 8.16912 16.197 9.81677 16.1991 11.8499C16.1991 11.9696 16.2886 12.0666 16.399 12.0666C16.5095 12.0666 16.599 11.9696 16.599 11.8499C16.5967 9.57756 14.897 7.73607 12.7996 7.73358C12.6891 7.73358 12.5996 7.83057 12.5996 7.95022C12.5996 8.06988 12.6891 8.16686 12.7996 8.16686Z" fill="black"/>
<path d="M12.7996 9.46679C14.0138 9.46834 14.9978 10.5344 14.9992 11.8499C14.9992 11.9696 15.0888 12.0666 15.1992 12.0666C15.3097 12.0666 15.3992 11.9696 15.3992 11.8499C15.3975 10.2952 14.2346 9.03529 12.7996 9.03351C12.6891 9.03351 12.5996 9.13049 12.5996 9.25015C12.5996 9.36981 12.6891 9.46679 12.7996 9.46679Z" fill="black"/>
<path d="M12.7996 10.7667C13.3514 10.7674 13.7986 11.252 13.7993 11.8499C13.7993 11.9696 13.8889 12.0666 13.9993 12.0666C14.1097 12.0666 14.1992 11.9696 14.1992 11.8499C14.1983 11.0128 13.5722 10.3343 12.7996 10.3334C12.6891 10.3334 12.5996 10.4304 12.5996 10.55C12.5996 10.6697 12.6891 10.7667 12.7996 10.7667Z" fill="black"/>
</g>
<defs>
<filter id="filter0_d" x="2" y="6" width="20" height="21" filterUnits="userSpaceOnUse" color-interpolation-filters="sRGB">
<feFlood flood-opacity="0" result="BackgroundImageFix"/>
<feColorMatrix in="SourceAlpha" type="matrix" values="0 0 0 0 0 0 0 0 0 0 0 0 0 0 0 0 0 0 127 0"/>
<feOffset dy="4"/>
<feGaussianBlur stdDeviation="2"/>
<feColorMatrix type="matrix" values="0 0 0 0 0 0 0 0 0 0 0 0 0 0 0 0 0 0 0.25 0"/>
<feBlend mode="normal" in2="BackgroundImageFix" result="effect1_dropShadow"/>
<feBlend mode="normal" in="SourceGraphic" in2="effect1_dropShadow" result="shape"/>
</filter>
</defs>
</svg>
