<svg width="12" height="13" viewBox="0 0 12 13" fill="none" xmlns="http://www.w3.org/2000/svg">
<path d="M11.6851 10.0291L9.25627 8.27419C8.94804 8.05329 8.53488 8.12597 8.30701 8.44123L7.59951 9.42676C7.50859 9.55665 7.3433 9.59433 7.21177 9.51517L7.07719 9.43478C6.63105 9.17133 6.07595 8.84333 4.95751 7.63118C3.83907 6.41902 3.53572 5.81715 3.29254 5.33469L3.21875 5.18889C3.14468 5.04641 3.1788 4.86658 3.29873 4.76728L4.20778 4.001C4.49865 3.7541 4.56583 3.3066 4.36217 2.97256L2.74241 0.341124C2.53368 0.000966273 2.11491 -0.101147 1.79178 0.1093L0.776128 0.770294C0.457003 0.973555 0.222874 1.30274 0.122834 1.68888C-0.242901 3.13263 0.0322375 5.62433 3.42014 9.29525C6.11515 12.2148 8.12146 13 9.50045 13C9.81782 13.0014 10.1339 12.9567 10.4403 12.867C10.7968 12.7587 11.1007 12.505 11.2882 12.1592L11.8989 11.0595C12.0934 10.7093 11.9992 10.2553 11.6851 10.0291ZM11.5543 10.8372L10.945 11.9375C10.8104 12.1871 10.5918 12.3707 10.3351 12.4497C9.10489 12.8156 6.95561 12.5125 3.70309 8.98871C0.450559 5.46489 0.170827 3.13654 0.508581 1.80351C0.581602 1.52505 0.751217 1.28794 0.981902 1.14186L1.99756 0.481726C2.13776 0.390327 2.31952 0.43463 2.41009 0.58224L3.28997 2.01342L4.02847 3.21344C4.11691 3.35834 4.08785 3.55254 3.96168 3.65975L3.05242 4.42603C2.77571 4.65527 2.69669 5.07004 2.86705 5.39923L2.93925 5.54136C3.19482 6.04918 3.51257 6.68093 4.6726 7.93751C5.83263 9.19408 6.41555 9.53835 6.88407 9.81521L7.01544 9.89363C7.31926 10.0782 7.70213 9.9926 7.91371 9.69281L8.621 8.7077C8.71998 8.57109 8.89916 8.53963 9.03295 8.63535L11.4616 10.3902C11.5979 10.4883 11.6388 10.6853 11.5543 10.8372Z" fill="black"/>
<path d="M6.79957 2.16686C8.67619 2.16912 10.197 3.81677 10.1991 5.84993C10.1991 5.96958 10.2886 6.06657 10.399 6.06657C10.5095 6.06657 10.599 5.96958 10.599 5.84993C10.5967 3.57756 8.89699 1.73607 6.79957 1.73358C6.68913 1.73358 6.59961 1.83057 6.59961 1.95022C6.59961 2.06988 6.68913 2.16686 6.79957 2.16686Z" fill="black"/>
<path d="M6.79957 3.46679C8.01383 3.46834 8.99782 4.53441 8.99925 5.84995C8.99925 5.9696 9.08879 6.06659 9.19921 6.06659C9.30965 6.06659 9.39917 5.9696 9.39917 5.84995C9.39751 4.2952 8.2346 3.03529 6.79957 3.03351C6.68913 3.03351 6.59961 3.13049 6.59961 3.25015C6.59961 3.36981 6.68913 3.46679 6.79957 3.46679Z" fill="black"/>
<path d="M6.79956 4.76669C7.35143 4.7674 7.79865 5.25197 7.79933 5.84995C7.79933 5.96961 7.88886 6.06659 7.99927 6.06659C8.10968 6.06659 8.19922 5.96961 8.19922 5.84995C8.19833 5.01278 7.5722 4.33434 6.79956 4.3334C6.68912 4.3334 6.59961 4.43039 6.59961 4.55005C6.59961 4.6697 6.68912 4.76669 6.79956 4.76669Z" fill="black"/>
</svg>
