<svg width="26" height="25" viewBox="0 0 26 25" fill="none" xmlns="http://www.w3.org/2000/svg">
<g clip-path="url(#clip0)">
<path d="M11.9855 5.55513L0.415362 16.6804C0.147543 16.9378 -1.12005e-07 17.2813 -9.59955e-08 17.6475C-7.99859e-08 18.0138 0.147543 18.3573 0.415362 18.6146L1.26723 19.4339C1.82231 19.967 2.72448 19.967 3.27872 19.4339L12.9946 10.0917L22.7213 19.4442C22.9891 19.7016 23.3461 19.8436 23.7268 19.8436C24.1079 19.8436 24.465 19.7016 24.733 19.4442L25.5846 18.6249C25.8525 18.3674 26 18.0241 26 17.6579C26 17.2916 25.8525 16.9481 25.5846 16.6908L14.004 5.55513C13.7353 5.2972 13.3766 5.15554 12.9952 5.15635C12.6124 5.15554 12.2539 5.2972 11.9855 5.55513Z" fill="black"/>
</g>
<defs>
<clipPath id="clip0">
<rect y="25" width="25" height="26" transform="rotate(-90 0 25)" fill="white"/>
</clipPath>
</defs>
</svg>
